<svg id="Capa_1" data-name="Capa 1" xmlns="http://www.w3.org/2000/svg" xmlns:xlink="http://www.w3.org/1999/xlink" viewBox="0 0 24.93 23.36"><defs><style>.cls-1{fill:url(#Degradado_sin_nombre_3);}.cls-2{fill:#fff;}</style><linearGradient id="Degradado_sin_nombre_3" y1="11.68" x2="24.93" y2="11.68" gradientUnits="userSpaceOnUse"><stop offset="0" stop-color="#0098ff"/><stop offset="1" stop-color="#00b8ef"/></linearGradient></defs><path class="cls-1" d="M2.09,0H22.94a.84.84,0,0,1,.82.79l1.17,21.68a.83.83,0,0,1-.82.89H.82A.83.83,0,0,1,0,22.47L1.28.79A.82.82,0,0,1,2.09,0Z"/><path class="cls-2" d="M19.24,4.15a1.19,1.19,0,0,0-2.38,0,1.17,1.17,0,0,0,.64,1V9.64a5.05,5.05,0,0,1-10.1,0V5.22A1.19,1.19,0,1,0,5.69,4.15a1.16,1.16,0,0,0,.54,1V9.77a6.22,6.22,0,0,0,12.44,0V5.15A1.18,1.18,0,0,0,19.24,4.15Z"/></svg>