<svg id="Capa_1" data-name="Capa 1" xmlns="http://www.w3.org/2000/svg" xmlns:xlink="http://www.w3.org/1999/xlink" viewBox="0 0 20 21.65"><defs><style>.cls-1,.cls-2{fill:none;stroke-miterlimit:10;}.cls-1{stroke:url(#Degradado_sin_nombre_48);}.cls-2{stroke:url(#Degradado_sin_nombre_48-2);}</style><linearGradient id="Degradado_sin_nombre_48" x1="1.48" y1="15.84" x2="18.52" y2="15.84" gradientUnits="userSpaceOnUse"><stop offset="0" stop-color="#bc0911"/><stop offset="1" stop-color="#e0a227"/></linearGradient><linearGradient id="Degradado_sin_nombre_48-2" x1="0.27" y1="6.21" x2="19.73" y2="6.21" xlink:href="#Degradado_sin_nombre_48"/></defs><path class="cls-1" d="M3.56,18.44H16.44V18c0-1.75,0-3.51,0-5.26a1.43,1.43,0,0,1,.07-.59.73.73,0,0,1,.79-.47.76.76,0,0,1,.7.64,1.14,1.14,0,0,1,0,.26v6.59c0,.64-.28.92-.92.92H2.9c-.64,0-.92-.28-.92-.92V12.54a.8.8,0,0,1,.8-.9.79.79,0,0,1,.78.88c0,1.8,0,3.6,0,5.39Z"/><path class="cls-2" d="M10,3.49,6.27,6.85,2.18,10.56a.81.81,0,0,1-1,.16A.72.72,0,0,1,.8,9.88a1,1,0,0,1,.3-.49Q5.26,5.61,9.41,1.86a.82.82,0,0,1,1.25.07l8.23,7.43a.81.81,0,1,1-1.07,1.19C16.86,9.7,15.92,8.83,15,8L10.24,3.69Z"/></svg>