<?xml version="1.0" encoding="utf-8"?>
<!-- Generator: Adobe Illustrator 25.2.3, SVG Export Plug-In . SVG Version: 6.00 Build 0)  -->
<svg version="1.1" id="Capa_1" xmlns="http://www.w3.org/2000/svg" xmlns:xlink="http://www.w3.org/1999/xlink" x="0px" y="0px"
	 viewBox="0 0 20 21.6" style="enable-background:new 0 0 20 21.6;" xml:space="preserve">
<style type="text/css">
	.st0{fill:url(#SVGID_1_);}
	.st1{fill:url(#SVGID_2_);}
	.st2{fill:url(#SVGID_3_);}
</style>
<linearGradient id="SVGID_1_" gradientUnits="userSpaceOnUse" x1="1.9736" y1="15.865" x2="18.0074" y2="15.865">
	<stop  offset="0" style="stop-color:#FFDD00"/>
	<stop  offset="0.9916" style="stop-color:#E30613"/>
</linearGradient>
<path class="st0" d="M3.6,18.4h12.9V18c0-1.8,0-3.5,0-5.3c0-0.2,0-0.4,0.1-0.6c0.1-0.3,0.4-0.5,0.8-0.5c0.4,0,0.6,0.3,0.7,0.6
	c0,0.1,0,0.2,0,0.3v6.6c0,0.6-0.3,0.9-0.9,0.9H2.9c-0.6,0-0.9-0.3-0.9-0.9v-6.6c-0.1-0.4,0.3-0.8,0.7-0.9c0,0,0.1,0,0.1,0
	c0.4,0,0.8,0.4,0.8,0.8c0,0,0,0.1,0,0.1c0,1.8,0,3.6,0,5.4V18.4z"/>
<linearGradient id="SVGID_2_" gradientUnits="userSpaceOnUse" x1="0.7738" y1="6.2266" x2="19.2587" y2="6.2266">
	<stop  offset="0" style="stop-color:#FFDD00"/>
	<stop  offset="0.9916" style="stop-color:#E30613"/>
</linearGradient>
<path class="st1" d="M10,3.5L6.3,6.8l-4.1,3.7c-0.3,0.3-0.7,0.3-1,0.2c-0.3-0.2-0.5-0.5-0.4-0.8c0-0.2,0.2-0.4,0.3-0.5
	c2.8-2.5,5.5-5,8.3-7.5c0.3-0.3,0.8-0.3,1.2,0c0,0,0.1,0.1,0.1,0.1l8.2,7.4c0.4,0.2,0.5,0.7,0.2,1.1c-0.2,0.4-0.7,0.5-1.1,0.2
	c-0.1,0-0.1-0.1-0.2-0.2c-1-0.8-1.9-1.7-2.8-2.5l-4.8-4.3L10,3.5z"/>
<linearGradient id="SVGID_3_" gradientUnits="userSpaceOnUse" x1="-111.6185" y1="-56.5" x2="-31.3815" y2="-56.5">
	<stop  offset="0" style="stop-color:#FFDD00"/>
	<stop  offset="0.9916" style="stop-color:#E30613"/>
</linearGradient>
<circle class="st2" cx="-71.5" cy="-56.5" r="40.1"/>
</svg>
