<?xml version="1.0" encoding="utf-8"?>
<!-- Generator: Adobe Illustrator 25.2.3, SVG Export Plug-In . SVG Version: 6.00 Build 0)  -->
<svg version="1.1" id="Capa_1" xmlns="http://www.w3.org/2000/svg" xmlns:xlink="http://www.w3.org/1999/xlink" x="0px" y="0px"
	 viewBox="0 0 20 21.6" style="enable-background:new 0 0 20 21.6;" xml:space="preserve">
<style type="text/css">
	.st0{fill:none;stroke:url(#SVGID_1_);stroke-width:0.75;stroke-miterlimit:10;}
	.st1{fill:none;stroke:url(#SVGID_2_);stroke-width:0.75;stroke-miterlimit:10;}
	.st2{fill:url(#SVGID_3_);}
</style>
<g>
	<linearGradient id="SVGID_1_" gradientUnits="userSpaceOnUse" x1="5.0905" y1="13.1478" x2="13.8763" y2="13.1478">
		<stop  offset="0" style="stop-color:#FF8878"/>
		<stop  offset="0.3032" style="stop-color:#DF6766"/>
		<stop  offset="0.9685" style="stop-color:#8E133A"/>
		<stop  offset="0.9916" style="stop-color:#8B1038"/>
	</linearGradient>
	<path class="st0" d="M11.8,12.1v1.4c0,1.8,0,3.6,0,5.4c0,0.3,0,0.6,0,0.8c0.1,0.6-0.4,1.2-1,1.3c-0.6,0.1-1.2-0.3-1.3-0.8v-0.1
		c0,0.1-0.1,0.2-0.1,0.3c-0.2,0.5-0.7,0.7-1.2,0.7c-0.5-0.1-0.9-0.4-1-0.9c0-0.2-0.1-0.3-0.1-0.5v-7.5l0,0l-0.1,0.2
		c-0.2,0.3-0.5,0.5-0.8,0.5c-0.4-0.1-0.7-0.4-0.7-0.8c0-0.6,0-1.3,0-1.9c0-1.4,0-2.8,0-4.1c0-0.1,0-0.2,0-0.3c0-0.4,0.2-0.5,0.6-0.5
		h6.5c0.6,0,0.9,0.2,0.9,0.9c0,2,0,4,0,6c0,0.4-0.2,0.7-0.6,0.8c-0.4,0.1-0.8-0.1-0.9-0.5C11.9,12.3,11.8,12.2,11.8,12.1z M7.5,13.6
		c0,1.2,0,2.3,0,3.5c0,0.9,0,1.8,0,2.7c0,0.7,0.6,1.2,1.2,0.9c0.4-0.2,0.6-0.6,0.6-1v-4c0-1,0-2,0-3c0-0.2,0.1-0.3,0.3-0.3
		s0.3,0.1,0.3,0.3c0,1.6,0,3.2,0,4.8c0,0.8,0,1.6,0,2.3c0,0.5,0.4,0.9,0.8,0.9c0.5,0,0.9-0.5,0.9-0.9V18c0-3.3,0-6.6,0-9.9
		c0-0.3,0-0.7,0-1c0-0.4,0.1-0.3,0.3-0.2c0.2,0,0.3,0,0.3,0.3c0,0.7,0,1.4,0,2.1v2.5c0,0.3,0.2,0.5,0.5,0.6c0,0,0.1,0,0.1,0
		c0.3,0,0.5-0.3,0.5-0.6c0,0,0,0,0,0V8.3c0-0.8,0-1.5,0-2.3c0-0.5-0.1-0.6-0.6-0.6H6.4c-0.6,0-0.6,0-0.6,0.6v4.1c0,0.6,0,1.2,0,1.8
		c0,0.3,0.2,0.5,0.5,0.6c0,0,0,0,0,0c0.3,0,0.5-0.2,0.5-0.5c0-0.2,0-0.4,0-0.6c0-1.3,0-2.7,0-4C6.8,7,6.9,7,7.1,7
		c0.3,0,0.3,0.1,0.3,0.4C7.5,9.4,7.5,11.5,7.5,13.6z"/>
	<linearGradient id="SVGID_2_" gradientUnits="userSpaceOnUse" x1="6.8311" y1="2.7516" x2="12.093" y2="2.7516">
		<stop  offset="0" style="stop-color:#FF8878"/>
		<stop  offset="0.3032" style="stop-color:#DF6766"/>
		<stop  offset="0.9685" style="stop-color:#8E133A"/>
		<stop  offset="0.9916" style="stop-color:#8B1038"/>
	</linearGradient>
	<path class="st1" d="M9.5,5C8.2,5,7.2,4,7.2,2.8c0,0,0,0,0-0.1c0-1.2,1-2.3,2.3-2.3s2.3,1,2.3,2.3S10.7,5,9.5,5z M9.5,4.7
		c1.1,0,1.9-0.9,1.9-1.9c0-1.1-0.9-1.9-1.9-1.9c-1.1,0-1.9,0.9-1.9,1.9C7.5,3.8,8.4,4.7,9.5,4.7C9.4,4.7,9.4,4.7,9.5,4.7L9.5,4.7z"
		/>
</g>
<linearGradient id="SVGID_3_" gradientUnits="userSpaceOnUse" x1="-91.6185" y1="-31.5" x2="-11.3815" y2="-31.5">
	<stop  offset="0" style="stop-color:#FF8878"/>
	<stop  offset="0.3032" style="stop-color:#DF6766"/>
	<stop  offset="0.9685" style="stop-color:#8E133A"/>
	<stop  offset="0.9916" style="stop-color:#8B1038"/>
</linearGradient>
<circle class="st2" cx="-51.5" cy="-31.5" r="40.1"/>
</svg>
