<svg id="Capa_1" data-name="Capa 1" xmlns="http://www.w3.org/2000/svg" xmlns:xlink="http://www.w3.org/1999/xlink" viewBox="0 0 20 21.65"><defs><style>.cls-1,.cls-2{fill:none;stroke-miterlimit:10;stroke-width:0.75px;}.cls-1{stroke:url(#Degradado_sin_nombre_30);}.cls-2{stroke:url(#Degradado_sin_nombre_30-2);}</style><linearGradient id="Degradado_sin_nombre_30" x1="5.31" y1="13.21" x2="13.88" y2="13.21" gradientUnits="userSpaceOnUse"><stop offset="0.29" stop-color="#e1b096"/><stop offset="0.38" stop-color="#dc9f75"/><stop offset="0.49" stop-color="#d68f54"/><stop offset="0.61" stop-color="#d2833b"/><stop offset="0.73" stop-color="#cf7a29"/><stop offset="0.86" stop-color="#ce751e"/><stop offset="1" stop-color="#cd731b"/></linearGradient><linearGradient id="Degradado_sin_nombre_30-2" x1="7.02" y1="3.16" x2="12.14" y2="3.16" xlink:href="#Degradado_sin_nombre_30"/></defs><path class="cls-1" d="M11.84,12.25v1.37c0,1.76,0,3.52,0,5.28,0,.27,0,.55,0,.82A1.2,1.2,0,0,1,10.91,21a1.12,1.12,0,0,1-1.27-.82l0-.1c0,.1-.08.18-.12.25A1.12,1.12,0,0,1,8.4,21a1.14,1.14,0,0,1-1-.91,2.07,2.07,0,0,1-.05-.5V12.32l0,0-.08.17a.83.83,0,0,1-.82.44.82.82,0,0,1-.72-.79c0-.63,0-1.25,0-1.88,0-1.33,0-2.67,0-4A2.83,2.83,0,0,1,5.7,6c0-.38.2-.53.59-.53h6.33c.62,0,.88.23.88.85q0,2.91,0,5.82a.79.79,0,0,1-.59.81A.81.81,0,0,1,12,12.5,2.65,2.65,0,0,1,11.84,12.25Zm-4.2,1.41c0,1.13,0,2.27,0,3.41,0,.89,0,1.78,0,2.66,0,.7.57,1.16,1.13.91a.94.94,0,0,0,.54-1V15.8c0-1,0-1.93,0-2.89,0-.22.07-.3.29-.31s.28.13.28.33c0,1.54,0,3.08,0,4.63,0,.75,0,1.51,0,2.27a.88.88,0,0,0,.82.89.93.93,0,0,0,.84-.92V18q0-4.78,0-9.57c0-.32,0-.64,0-1s.09-.26.29-.23.3,0,.3.27c0,.69,0,1.38,0,2.07v2.47a.51.51,0,0,0,.58.55.53.53,0,0,0,.47-.6V8.55c0-.74,0-1.49,0-2.24,0-.49-.12-.6-.6-.6h-6c-.58,0-.59,0-.59.58v4c0,.59,0,1.18,0,1.76a.5.5,0,0,0,.5.54A.51.51,0,0,0,7,12.09c0-.2,0-.4,0-.6,0-1.3,0-2.61,0-3.92,0-.25.08-.33.33-.33s.29.13.29.34C7.63,9.61,7.63,11.63,7.64,13.66Z"/><path class="cls-2" d="M9.58,5.34A2.16,2.16,0,0,1,7.39,3.15,2.19,2.19,0,1,1,9.58,5.34Zm0-.29a1.89,1.89,0,1,0-1.89-1.9A1.88,1.88,0,0,0,9.57,5.05Z"/></svg>