<?xml version="1.0" encoding="utf-8"?>
<!-- Generator: Adobe Illustrator 25.2.3, SVG Export Plug-In . SVG Version: 6.00 Build 0)  -->
<svg version="1.1" id="Capa_1" xmlns="http://www.w3.org/2000/svg" xmlns:xlink="http://www.w3.org/1999/xlink" x="0px" y="0px"
	 viewBox="0 0 20 21.6" style="enable-background:new 0 0 20 21.6;" xml:space="preserve">
<style type="text/css">
	.st0{fill:url(#SVGID_1_);}
	.st1{fill:url(#SVGID_2_);}
</style>
<linearGradient id="SVGID_1_" gradientUnits="userSpaceOnUse" x1="1.25" y1="13.18" x2="18.75" y2="13.18" gradientTransform="matrix(1 0 0 -1 0 24)">
	<stop  offset="0" style="stop-color:#DEDC00"/>
	<stop  offset="0.9916" style="stop-color:#52AE32"/>
</linearGradient>
<path class="st0" d="M10,19.6c-4.8,0-8.8-3.9-8.8-8.7C1.2,6,5.1,2.1,10,2.1c4.8,0,8.8,3.9,8.8,8.7c0,0,0,0,0,0.1
	C18.7,15.7,14.8,19.6,10,19.6C10,19.6,10,19.6,10,19.6z M3.8,5.9C3.9,6,4,6,4,6c2.5,0.5,4.7,2,6.1,4.2c0.1,0.1,0.2,0.2,0.3,0.2
	c0.9,0.1,1.9-0.1,2.8-0.4c-0.8-0.9-1.5-1.8-2.3-2.6C9.6,6,8,4.9,6.2,4.2c-0.1,0-0.3-0.1-0.4-0.1C5,4.6,4.3,5.2,3.8,5.9z M17.5,8.4
	c-0.1,0-0.2,0.1-0.2,0.1c-1.8,1.8-4.3,2.8-6.8,2.7c-0.1,0-0.3,0-0.3,0.1C9.6,12,9.2,12.8,9,13.7c0.2,0,0.4,0,0.6,0
	c0.9-0.1,1.8-0.2,2.7-0.3c1.9-0.3,3.7-0.9,5.3-2c0.1-0.1,0.3-0.3,0.4-0.4C18,10.1,17.8,9.2,17.5,8.4z M7.9,18.5L8,18.4
	c0-0.1,0-0.3,0-0.4c0-0.2-0.1-0.3-0.1-0.5c-0.3-2.2,0.2-4.4,1.4-6.3c0.1-0.1,0.2-0.4,0.1-0.6C9,10,8.5,9.3,7.9,8.7L7.7,8.8
	c-0.3,0.7-0.6,1.4-0.9,2.1c-0.8,1.9-1.2,3.9-1.2,6c0,0.2,0.1,0.5,0.2,0.6C6.4,17.8,7.2,18.2,7.9,18.5z M6.6,3.8
	c0.7,0.4,1.5,0.8,2.2,1.3c1.7,1.2,3.3,2.8,4.5,4.5c0.1,0.1,0.4,0.3,0.5,0.3c0.6-0.2,1.1-0.5,1.8-0.9c-0.5-0.6-0.9-1.2-1.4-1.7
	c-1.3-1.6-3-3-4.9-4C8.4,3,7.4,3.1,6.6,3.8z M17.9,11.9c-0.1,0-0.2,0.1-0.3,0.1c-2.2,1.3-4.7,2-7.3,2.1c-1.6,0.1-1.6,0.1-1.7,1.7V16
	c0,0.3,0.1,0.4,0.4,0.4c2.5-0.1,5-0.7,7.4-1.7C17.5,14.1,17.6,13,17.9,11.9z M4.9,17C5,16.8,5,16.7,5.1,16.5
	c0.1-2.4,0.7-4.7,1.7-6.8c0.2-0.4,0.8-0.9,0.4-1.4S6.3,7.7,5.8,7.4c-0.3-0.2-0.4,0-0.5,0.2c-0.9,1.9-1.6,3.9-1.9,5.9
	c-0.1,0.5-0.1,1,0,1.5C3.8,15.8,4.3,16.4,4.9,17z M16.5,15.1l-0.2,0.1c-2.1,0.9-4.3,1.5-6.6,1.6c-1.3,0.1-1.3,0.1-1,1.4
	c0,0.3,0.3,0.6,0.6,0.5c1.5,0.1,3-0.2,4.4-0.9C14.9,17.2,15.9,16.2,16.5,15.1L16.5,15.1z M10,2.9v0.2c2.4,1.4,4.4,3.3,6,5.6
	c0.3-0.2,0.5-0.5,0.8-0.6c0.5-0.3,0.5-0.7,0.2-1.2c-1.2-2-3.1-3.4-5.4-3.8C11,3,10.5,2.9,10,2.9z M2.8,14h0.1c0.3-2.4,1-4.8,2.1-6.9
	C4.4,7,4,6.8,3.4,6.7C3.3,6.7,3.1,6.9,3.1,7C2,9,1.8,11.4,2.6,13.5C2.6,13.7,2.7,13.8,2.8,14z"/>
<linearGradient id="SVGID_2_" gradientUnits="userSpaceOnUse" x1="-99.6185" y1="-45.5" x2="-19.3815" y2="-45.5">
	<stop  offset="0" style="stop-color:#DEDC00"/>
	<stop  offset="0.9916" style="stop-color:#52AE32"/>
</linearGradient>
<circle class="st1" cx="-59.5" cy="-45.5" r="40.1"/>
</svg>
