<svg id="Capa_1" data-name="Capa 1" xmlns="http://www.w3.org/2000/svg" xmlns:xlink="http://www.w3.org/1999/xlink" viewBox="0 0 20 21.65"><defs><style>.cls-1{fill:url(#Nueva_muestra_de_degradado_3);}</style><linearGradient id="Nueva_muestra_de_degradado_3" x1="1.25" y1="10.82" x2="18.75" y2="10.82" gradientUnits="userSpaceOnUse"><stop offset="0.18" stop-color="#72a53f"/><stop offset="0.99" stop-color="#d6d532"/></linearGradient></defs><path class="cls-1" d="M10,19.58a8.76,8.76,0,1,1,8.74-8.71A8.72,8.72,0,0,1,10,19.58ZM3.82,5.91C3.93,6,4,6,4,6a9.7,9.7,0,0,1,6.08,4.17c.07.1.18.22.27.22A6.62,6.62,0,0,0,13.14,10c-.8-.91-1.5-1.77-2.28-2.56A12.27,12.27,0,0,0,6.23,4.24c-.14,0-.34-.13-.44-.07A6.3,6.3,0,0,0,3.82,5.91ZM17.5,8.35a1.47,1.47,0,0,0-.22.12,9.51,9.51,0,0,1-6.79,2.73c-.11,0-.27,0-.33.09A6.28,6.28,0,0,0,9,13.69a5.93,5.93,0,0,0,.6,0c.89-.1,1.8-.17,2.69-.32a12.7,12.7,0,0,0,5.27-2c.15-.1.34-.26.35-.41A6.2,6.2,0,0,0,17.5,8.35ZM7.88,18.53,8,18.36c0-.13,0-.27,0-.4a3.81,3.81,0,0,1-.07-.47,9.54,9.54,0,0,1,1.41-6.33c.09-.15.19-.45.12-.55-.49-.66-1-1.28-1.55-1.92l-.2.06c-.31.69-.64,1.37-.92,2.08a15.18,15.18,0,0,0-1.23,6c0,.21.07.52.21.6C6.42,17.84,7.15,18.18,7.88,18.53ZM6.58,3.79c.73.43,1.49.82,2.19,1.29a20.36,20.36,0,0,1,4.54,4.49c.11.13.37.3.47.26.59-.24,1.15-.54,1.82-.87-.51-.64-.93-1.19-1.38-1.71A15.49,15.49,0,0,0,9.36,3.3,2.85,2.85,0,0,0,6.58,3.79Zm11.28,8.08a2.77,2.77,0,0,0-.34.1,16.31,16.31,0,0,1-7.3,2.11c-1.58.14-1.58.11-1.67,1.71V16c0,.3.11.4.4.39a19.85,19.85,0,0,0,7.37-1.72C17.54,14.1,17.59,13,17.86,11.87ZM4.92,17a2.8,2.8,0,0,0,.13-.52A18.85,18.85,0,0,1,6.73,9.65c.18-.45.76-.9.41-1.37s-.89-.57-1.35-.85c-.26-.16-.4,0-.52.2A19.62,19.62,0,0,0,3.4,13.56a3,3,0,0,0,0,1.54A11.74,11.74,0,0,0,4.92,17Zm11.6-1.92-.23.07a18.83,18.83,0,0,1-6.55,1.62c-1.31.12-1.3.1-1,1.4a.6.6,0,0,0,.63.54,8,8,0,0,0,4.38-.93A6.61,6.61,0,0,0,16.52,15.09ZM10,2.89l0,.18a20,20,0,0,1,6,5.57c.28-.24.51-.46.76-.64.45-.34.46-.68.16-1.15a7.91,7.91,0,0,0-5.36-3.79A15,15,0,0,0,10,2.89ZM2.77,14h.14A21.47,21.47,0,0,1,5,7.07C4.44,7,4,6.81,3.44,6.74c-.11,0-.3.16-.37.29a7.81,7.81,0,0,0-.51,6.49A4.39,4.39,0,0,0,2.77,14Z"/></svg>