<svg id="Capa_1" data-name="Capa 1" xmlns="http://www.w3.org/2000/svg" xmlns:xlink="http://www.w3.org/1999/xlink" viewBox="0 0 20 21.65"><defs><style>.cls-1{fill:url(#Nueva_muestra_de_degradado_3);}.cls-2{fill:url(#Nueva_muestra_de_degradado_3-2);}.cls-3{fill:url(#Nueva_muestra_de_degradado_3-3);}.cls-4{fill:url(#Nueva_muestra_de_degradado_3-4);}</style><linearGradient id="Nueva_muestra_de_degradado_3" x1="4.15" y1="12.29" x2="17.8" y2="12.29" gradientUnits="userSpaceOnUse"><stop offset="0.18" stop-color="#72a53f"/><stop offset="0.99" stop-color="#d6d532"/></linearGradient><linearGradient id="Nueva_muestra_de_degradado_3-2" x1="2.2" y1="12.5" x2="15.84" y2="12.5" xlink:href="#Nueva_muestra_de_degradado_3"/><linearGradient id="Nueva_muestra_de_degradado_3-3" x1="7.57" y1="3.25" x2="14.38" y2="3.25" xlink:href="#Nueva_muestra_de_degradado_3"/><linearGradient id="Nueva_muestra_de_degradado_3-4" x1="4.18" y1="6.91" x2="7.03" y2="6.91" xlink:href="#Nueva_muestra_de_degradado_3"/></defs><path class="cls-1" d="M17.79,12.19v7.22a2,2,0,0,1-.18.9,1.34,1.34,0,0,1-1.09.72,8.75,8.75,0,0,1-.89,0H6.57a10.28,10.28,0,0,1-1.11,0,1.37,1.37,0,0,1-1.3-1.44c0-.89,0-1.78,0-2.67V14.86a1.08,1.08,0,0,1,0-.18.47.47,0,0,1,.65-.4c.19.06.29.22.29.49v4.65c0,.55.14.69.69.69H16.08a2.06,2.06,0,0,0,.35,0,.42.42,0,0,0,.4-.44c0-.2,0-.41,0-.61v-14a.76.76,0,0,0,0-.15.43.43,0,0,0-.46-.45c-.34,0-.67,0-1,0a.43.43,0,0,1-.45-.57.38.38,0,0,1,.41-.35c.41,0,.82,0,1.23,0a1.3,1.3,0,0,1,1.22,1.27c0,.49,0,1,0,1.48v5.89Z"/><path class="cls-2" d="M12.1,11.28l0,.14-.42,1.42a.55.55,0,0,1-.42.43H9.39a.41.41,0,0,0-.41.23c-.27.52-.56,1-.85,1.55,0,0-.05.09-.07.13a.43.43,0,0,1-.75,0,.92.92,0,0,1-.09-.23c-.24-1-.47-2-.71-3a1.66,1.66,0,0,0-.06-.21h0l-.06.1c-.16.36-.32.71-.47,1.08a.54.54,0,0,1-.54.35H2.64a.47.47,0,0,1,0-.93H4.79c.27,0,.3,0,.4-.27.29-.67.56-1.34.85-2a1,1,0,0,1,.21-.32.37.37,0,0,1,.58,0,1.05,1.05,0,0,1,.22.45c.25,1,.49,2.07.74,3.11a1.83,1.83,0,0,0,.07.23L8,13.35c.12-.23.25-.46.38-.69a.62.62,0,0,1,.6-.37h1.6c.22,0,.27,0,.33-.24l1-3.08a.9.9,0,0,1,.08-.21.43.43,0,0,1,.46-.27.41.41,0,0,1,.39.36c.06.3.11.61.15.91.18,1.08.35,2.16.52,3.24,0,.28.09.56.14.84a.33.33,0,0,0,.08.17.54.54,0,0,1,0-.11c.14-.4.29-.79.43-1.18s.22-.42.6-.43h.65a.45.45,0,0,1,.47.44.44.44,0,0,1-.43.49l-.23,0a.35.35,0,0,0-.36.27c-.15.43-.3.86-.46,1.3l-.46,1.32a.46.46,0,0,1-.5.37.41.41,0,0,1-.41-.4l-.33-1.92-.45-2.64a2.76,2.76,0,0,0-.08-.27Z"/><path class="cls-3" d="M11,5.92H8.57a.91.91,0,0,1-1-.89c0-.55,0-1.09,0-1.63a.9.9,0,0,1,.92-.85H8.7c.27,0,.33,0,.36-.29A1.87,1.87,0,0,1,10,.85a1.93,1.93,0,0,1,2.87,1.36.29.29,0,0,0,0,.09c0,.24,0,.24.29.24l.41,0a.9.9,0,0,1,.76.87c0,.51,0,1,0,1.53a.93.93,0,0,1-1,1ZM8.54,3.51v.12c0,.39,0,.79,0,1.19,0,.11,0,.14.15.14h4.6c.1,0,.15,0,.14-.14s0-.4,0-.6V3.51Zm3.39-1a.08.08,0,0,0,0,0A1,1,0,0,0,11,1.53a1,1,0,0,0-1,.86c0,.11,0,.13.13.13h1.8Z"/><path class="cls-4" d="M4.18,7.37V5.07a2.16,2.16,0,0,1,.07-.51,1.32,1.32,0,0,1,1.28-1c.35,0,.7,0,1,0A.41.41,0,0,1,7,4a.41.41,0,0,1-.4.46c-.29,0-.59,0-.88,0-.51,0-.67.17-.67.68,0,1.56,0,3.13,0,4.69a.43.43,0,0,1-.58.47.41.41,0,0,1-.31-.41V7.37Z"/></svg>