<?xml version="1.0" encoding="utf-8"?>
<!-- Generator: Adobe Illustrator 25.2.3, SVG Export Plug-In . SVG Version: 6.00 Build 0)  -->
<svg version="1.1" id="Capa_1" xmlns="http://www.w3.org/2000/svg" xmlns:xlink="http://www.w3.org/1999/xlink" x="0px" y="0px"
	 viewBox="0 0 20 21.6" style="enable-background:new 0 0 20 21.6;" xml:space="preserve">
<style type="text/css">
	.st0{fill:url(#SVGID_1_);}
	.st1{fill:url(#SVGID_2_);}
	.st2{fill:url(#SVGID_3_);}
	.st3{fill:url(#SVGID_4_);}
	.st4{fill:url(#SVGID_5_);}
</style>
<linearGradient id="SVGID_1_" gradientUnits="userSpaceOnUse" x1="4.1562" y1="11.7081" x2="17.8062" y2="11.7081" gradientTransform="matrix(1 0 0 -1 0 24)">
	<stop  offset="0" style="stop-color:#F7B49A"/>
	<stop  offset="0.9916" style="stop-color:#E30613"/>
</linearGradient>
<path class="st0" d="M17.8,12.2v7.2c0,0.3-0.1,0.6-0.2,0.9C17.4,20.7,17,21,16.5,21c-0.3,0-0.6,0-0.9,0H6.6c-0.4,0-0.7,0-1.1,0
	c-0.8,0-1.3-0.7-1.3-1.4c0,0,0,0,0,0c0-0.9,0-1.8,0-2.7v-2.1c0-0.1,0-0.1,0-0.2c0-0.3,0.2-0.5,0.5-0.4c0.1,0,0.1,0,0.1,0
	c0.2,0.1,0.3,0.2,0.3,0.5v4.7c0,0.5,0.1,0.7,0.7,0.7h10.3c0.1,0,0.2,0,0.4,0c0.2,0,0.4-0.2,0.4-0.4c0,0,0,0,0,0c0-0.2,0-0.4,0-0.6
	v-14c0,0,0-0.1,0-0.2c0-0.2-0.2-0.4-0.4-0.5c0,0,0,0-0.1,0c-0.3,0-0.7,0-1,0c-0.2,0-0.4-0.1-0.5-0.4c0-0.1,0-0.1,0-0.2
	c0-0.2,0.2-0.4,0.4-0.4c0,0,0,0,0,0c0.4,0,0.8,0,1.2,0c0.7,0,1.2,0.6,1.2,1.3c0,0.5,0,1,0,1.5L17.8,12.2L17.8,12.2z"/>
<linearGradient id="SVGID_2_" gradientUnits="userSpaceOnUse" x1="2.2" y1="11.5158" x2="15.8446" y2="11.5158" gradientTransform="matrix(1 0 0 -1 0 24)">
	<stop  offset="0" style="stop-color:#F7B49A"/>
	<stop  offset="0.9916" style="stop-color:#E30613"/>
</linearGradient>
<path class="st1" d="M12.1,11.3v0.1l-0.4,1.4c0,0.2-0.2,0.4-0.4,0.4H9.4c-0.2,0-0.3,0.1-0.4,0.2c-0.3,0.5-0.6,1-0.9,1.6
	c0,0-0.1,0.1-0.1,0.1c-0.1,0.2-0.4,0.3-0.6,0.2c-0.1,0-0.1-0.1-0.2-0.2c0-0.1-0.1-0.1-0.1-0.2c-0.2-1-0.5-2-0.7-3
	c0-0.1,0-0.1-0.1-0.2l0,0l-0.1,0.1c-0.2,0.4-0.3,0.7-0.5,1.1c-0.1,0.2-0.3,0.4-0.5,0.4H2.6c-0.3,0-0.4-0.3-0.4-0.5
	c0-0.2,0.2-0.4,0.4-0.4h2.1c0.3,0,0.3,0,0.4-0.3c0.3-0.7,0.6-1.3,0.8-2c0-0.1,0.1-0.2,0.2-0.3c0.1-0.2,0.4-0.2,0.5-0.1
	c0,0,0,0,0.1,0.1C6.9,9.9,7,10,7,10.2c0.3,1,0.5,2.1,0.7,3.1c0,0.1,0,0.2,0.1,0.2L8,13.4c0.1-0.2,0.3-0.5,0.4-0.7
	c0.1-0.2,0.3-0.4,0.6-0.4h1.6c0.2,0,0.3,0,0.3-0.2l1-3.1c0-0.1,0-0.1,0.1-0.2c0.1-0.2,0.3-0.3,0.5-0.3c0.2,0,0.4,0.2,0.4,0.4
	C12.9,9.2,13,9.5,13,9.8c0.2,1.1,0.4,2.2,0.5,3.2c0,0.3,0.1,0.6,0.1,0.8c0,0.1,0,0.1,0.1,0.2c0,0,0-0.1,0-0.1
	c0.1-0.4,0.3-0.8,0.4-1.2s0.2-0.4,0.6-0.4h0.6c0.2,0,0.5,0.2,0.5,0.4c0,0,0,0,0,0c0,0.2-0.1,0.5-0.4,0.5c0,0,0,0,0,0h-0.2
	c-0.2,0-0.3,0.1-0.4,0.3c-0.1,0.4-0.3,0.9-0.5,1.3l-0.5,1.3c0,0.2-0.3,0.4-0.5,0.4c-0.2,0-0.4-0.2-0.4-0.4l-0.3-1.9l-0.4-2.6
	C12.2,11.4,12.2,11.3,12.1,11.3L12.1,11.3z"/>
<linearGradient id="SVGID_3_" gradientUnits="userSpaceOnUse" x1="7.57" y1="20.7331" x2="14.38" y2="20.7331" gradientTransform="matrix(1 0 0 -1 0 24)">
	<stop  offset="0" style="stop-color:#F7B49A"/>
	<stop  offset="0.9916" style="stop-color:#E30613"/>
</linearGradient>
<path class="st2" d="M11,5.9H8.6c-0.5,0-0.9-0.3-1-0.8c0,0,0,0,0-0.1c0-0.6,0-1.1,0-1.6c0-0.5,0.4-0.9,0.9-0.8h0.2
	c0.3,0,0.3,0,0.4-0.3C9.1,1.7,9.5,1.1,10,0.9c0.9-0.5,2.1-0.2,2.6,0.7c0.1,0.2,0.2,0.4,0.2,0.7c0,0,0,0.1,0,0.1c0,0.2,0,0.2,0.3,0.2
	h0.4C14,2.6,14.3,3,14.3,3.4c0,0.5,0,1,0,1.5c0,0.5-0.3,1-0.9,1c0,0-0.1,0-0.1,0L11,5.9z M8.5,3.5v0.1c0,0.4,0,0.8,0,1.2
	c0,0.1,0,0.1,0.1,0.1h4.6c0.1,0,0.1,0,0.1-0.1s0-0.4,0-0.6V3.5H8.5z M11.9,2.5L11.9,2.5c0-0.5-0.4-0.9-0.9-1c-0.5,0-0.9,0.4-1,0.9
	c0,0.1,0,0.1,0.1,0.1L11.9,2.5L11.9,2.5z"/>
<linearGradient id="SVGID_4_" gradientUnits="userSpaceOnUse" x1="4.18" y1="17.0578" x2="7.03" y2="17.0578" gradientTransform="matrix(1 0 0 -1 0 24)">
	<stop  offset="0" style="stop-color:#F7B49A"/>
	<stop  offset="0.9916" style="stop-color:#E30613"/>
</linearGradient>
<path class="st3" d="M4.2,7.4V5.1c0-0.2,0-0.3,0.1-0.5c0.1-0.6,0.7-1,1.3-1c0.3,0,0.7,0,1,0C6.8,3.5,7,3.7,7,3.9C7,3.9,7,4,7,4
	c0,0.2-0.1,0.4-0.4,0.5c0,0,0,0,0,0c-0.3,0-0.6,0-0.9,0C5.2,4.5,5,4.6,5,5.1c0,1.6,0,3.1,0,4.7c0,0.2-0.1,0.5-0.4,0.5
	c-0.1,0-0.2,0-0.2,0c-0.2,0-0.3-0.2-0.3-0.4L4.2,7.4L4.2,7.4z"/>
<linearGradient id="SVGID_5_" gradientUnits="userSpaceOnUse" x1="-115.6185" y1="-50.5" x2="-35.3815" y2="-50.5">
	<stop  offset="0" style="stop-color:#F7B49A"/>
	<stop  offset="0.9916" style="stop-color:#E30613"/>
</linearGradient>
<circle class="st4" cx="-75.5" cy="-50.5" r="40.1"/>
</svg>
