<?xml version="1.0" encoding="utf-8"?>
<!-- Generator: Adobe Illustrator 25.2.3, SVG Export Plug-In . SVG Version: 6.00 Build 0)  -->
<svg version="1.1" id="Capa_1" xmlns="http://www.w3.org/2000/svg" xmlns:xlink="http://www.w3.org/1999/xlink" x="0px" y="0px"
	 viewBox="0 0 20 21.6" style="enable-background:new 0 0 20 21.6;" xml:space="preserve">
<style type="text/css">
	.st0{fill:url(#SVGID_1_);}
	.st1{fill:url(#SVGID_2_);}
	.st2{fill:url(#SVGID_3_);}
	.st3{fill:url(#SVGID_4_);}
	.st4{fill:url(#SVGID_5_);}
	.st5{fill:url(#SVGID_6_);}
	.st6{fill:url(#SVGID_7_);}
</style>
<linearGradient id="SVGID_1_" gradientUnits="userSpaceOnUse" x1="1.6041" y1="8.1968" x2="18.4241" y2="8.1968" gradientTransform="matrix(1 0 0 -1 0 24)">
	<stop  offset="0" style="stop-color:#BFE2E0"/>
	<stop  offset="1.604389e-02" style="stop-color:#B5DFDC"/>
	<stop  offset="9.182948e-02" style="stop-color:#8BD2CC"/>
	<stop  offset="0.1739" style="stop-color:#65C8BE"/>
	<stop  offset="0.2616" style="stop-color:#46BFB1"/>
	<stop  offset="0.3563" style="stop-color:#2CB7A8"/>
	<stop  offset="0.4609" style="stop-color:#18B2A0"/>
	<stop  offset="0.5808" style="stop-color:#0BAE9B"/>
	<stop  offset="0.729" style="stop-color:#02AB97"/>
	<stop  offset="0.9916" style="stop-color:#00AB97"/>
</linearGradient>
<path class="st0" d="M10,10.7h7.7c0.4-0.1,0.7,0.2,0.8,0.6c0,0.1,0,0.1,0,0.2c0,2.7,0,5.4,0,8.1c0.1,0.6-0.3,1.1-0.9,1.3
	c-0.1,0-0.2,0-0.3,0H2.7c-0.6,0-1-0.4-1.1-0.9c0-0.1,0-0.1,0-0.2c0-2.8,0-5.6,0-8.3c0-0.4,0.2-0.7,0.6-0.7c0.1,0,0.1,0,0.2,0
	L10,10.7z M10,11.6H2.7c-0.2,0-0.2,0.1-0.2,0.3c0,2.6,0,5.2,0,7.8c0,0.4,0,0.4,0.4,0.4h14.4c0.4,0,0.4,0,0.4-0.4c0-2.6,0-5.3,0-7.9
	c0-0.2,0-0.2-0.2-0.2H10z"/>
<linearGradient id="SVGID_2_" gradientUnits="userSpaceOnUse" x1="0.5" y1="18.7621" x2="5.5281" y2="18.7621" gradientTransform="matrix(1 0 0 -1 0 24)">
	<stop  offset="0" style="stop-color:#BFE2E0"/>
	<stop  offset="1.604389e-02" style="stop-color:#B5DFDC"/>
	<stop  offset="9.182948e-02" style="stop-color:#8BD2CC"/>
	<stop  offset="0.1739" style="stop-color:#65C8BE"/>
	<stop  offset="0.2616" style="stop-color:#46BFB1"/>
	<stop  offset="0.3563" style="stop-color:#2CB7A8"/>
	<stop  offset="0.4609" style="stop-color:#18B2A0"/>
	<stop  offset="0.5808" style="stop-color:#0BAE9B"/>
	<stop  offset="0.729" style="stop-color:#02AB97"/>
	<stop  offset="0.9916" style="stop-color:#00AB97"/>
</linearGradient>
<path class="st1" d="M2.4,9.7c-0.3,0-0.5,0-0.8-0.1c-0.8-0.2-1.2-1-1-1.7c0,0,0-0.1,0-0.1C1,5.9,1.4,4,1.9,2.1
	c0.1-0.4,0.4-0.8,0.8-1C3.3,0.7,4,0.7,4.7,0.9c0.6,0.2,1,0.8,0.8,1.4c0,0,0,0,0,0.1C5.4,3.1,5.3,3.8,5.2,4.5S5,6.1,4.9,6.9
	c0,0.4-0.1,0.8-0.2,1.2C4.5,9,3.8,9.6,2.9,9.7C2.7,9.7,2.6,9.7,2.4,9.7z M2.4,8.9h0.2C3.3,9,3.9,8.5,4,7.8c0,0,0,0,0,0
	C4.2,6.9,4.3,6,4.4,5.1l0.4-3c0-0.3,0-0.3-0.2-0.4C4,1.5,3.4,1.5,2.9,1.8C2.8,1.9,2.7,2,2.7,2.2C2.6,2.5,2.6,2.8,2.5,3.1l-1.1,5
	c-0.1,0.2,0,0.4,0.2,0.5C1.8,8.8,2.1,8.9,2.4,8.9z"/>
<linearGradient id="SVGID_3_" gradientUnits="userSpaceOnUse" x1="14.49" y1="18.7591" x2="19.5" y2="18.7591" gradientTransform="matrix(1 0 0 -1 0 24)">
	<stop  offset="0" style="stop-color:#BFE2E0"/>
	<stop  offset="1.604389e-02" style="stop-color:#B5DFDC"/>
	<stop  offset="9.182948e-02" style="stop-color:#8BD2CC"/>
	<stop  offset="0.1739" style="stop-color:#65C8BE"/>
	<stop  offset="0.2616" style="stop-color:#46BFB1"/>
	<stop  offset="0.3563" style="stop-color:#2CB7A8"/>
	<stop  offset="0.4609" style="stop-color:#18B2A0"/>
	<stop  offset="0.5808" style="stop-color:#0BAE9B"/>
	<stop  offset="0.729" style="stop-color:#02AB97"/>
	<stop  offset="0.9916" style="stop-color:#00AB97"/>
</linearGradient>
<path class="st2" d="M17.7,9.7c-0.5,0-1.1-0.1-1.5-0.4c-0.5-0.3-0.8-0.9-0.9-1.5c-0.1-0.7-0.2-1.5-0.3-2.2s-0.2-1.4-0.3-2.1
	c-0.1-0.5-0.1-0.9-0.2-1.4c-0.1-0.4,0.1-0.9,0.5-1.1c0.8-0.4,1.8-0.4,2.5,0.1c0.4,0.2,0.6,0.6,0.6,1.1C18.6,4.1,19,6,19.4,7.8
	c0.2,0.7-0.2,1.5-1,1.7c-0.1,0-0.1,0-0.2,0C18.1,9.7,17.9,9.7,17.7,9.7z M17.6,8.9c0.3,0,0.6-0.1,0.8-0.2c0.3-0.1,0.4-0.4,0.3-0.7
	c0-0.3-0.1-0.5-0.2-0.8l-1.1-5c0-0.2-0.2-0.4-0.4-0.5c-0.5-0.2-1-0.3-1.5-0.1c-0.3,0.1-0.3,0.2-0.3,0.5s0.1,0.9,0.2,1.3
	c0.1,0.7,0.2,1.4,0.3,2.2s0.2,1.3,0.2,1.9c0,0.7,0.4,1.2,1.1,1.3C17.2,8.9,17.4,8.9,17.6,8.9z"/>
<linearGradient id="SVGID_4_" gradientUnits="userSpaceOnUse" x1="10.19" y1="18.7553" x2="14.48" y2="18.7553" gradientTransform="matrix(1 0 0 -1 0 24)">
	<stop  offset="0" style="stop-color:#BFE2E0"/>
	<stop  offset="1.604389e-02" style="stop-color:#B5DFDC"/>
	<stop  offset="9.182948e-02" style="stop-color:#8BD2CC"/>
	<stop  offset="0.1739" style="stop-color:#65C8BE"/>
	<stop  offset="0.2616" style="stop-color:#46BFB1"/>
	<stop  offset="0.3563" style="stop-color:#2CB7A8"/>
	<stop  offset="0.4609" style="stop-color:#18B2A0"/>
	<stop  offset="0.5808" style="stop-color:#0BAE9B"/>
	<stop  offset="0.729" style="stop-color:#02AB97"/>
	<stop  offset="0.9916" style="stop-color:#00AB97"/>
</linearGradient>
<path class="st3" d="M10.2,5c0-0.9,0-1.8,0-2.7c-0.1-0.7,0.4-1.4,1.1-1.5c0,0,0,0,0,0c0.6-0.2,1.3-0.1,1.9,0.2
	c0.4,0.2,0.7,0.7,0.6,1.2C14,3,14,3.7,14.1,4.5s0.1,1.3,0.2,1.9c0,0.5,0.1,1,0.2,1.4c0.1,0.8-0.5,1.6-1.3,1.8
	c-0.8,0.2-1.7,0.1-2.3-0.4c-0.4-0.3-0.6-0.7-0.6-1.2C10.3,7,10.3,6,10.2,5z M11,5c0,1,0.1,1.9,0,2.9c0,0.3,0.1,0.5,0.4,0.7
	C11.9,9,12.6,9,13.2,8.7c0.2-0.1,0.4-0.3,0.4-0.6c0-0.3,0-0.5-0.1-0.8c-0.1-0.6-0.1-1.2-0.2-1.8l-0.2-1.7c-0.1-0.5-0.1-1.1-0.2-1.7
	c0-0.2-0.1-0.4-0.3-0.4c-0.5-0.2-1-0.2-1.5,0C11,1.8,10.9,2,10.9,2.2C11,3.1,11.1,4.1,11,5z"/>
<linearGradient id="SVGID_5_" gradientUnits="userSpaceOnUse" x1="5.53" y1="18.7608" x2="9.82" y2="18.7608" gradientTransform="matrix(1 0 0 -1 0 24)">
	<stop  offset="0" style="stop-color:#BFE2E0"/>
	<stop  offset="1.604389e-02" style="stop-color:#B5DFDC"/>
	<stop  offset="9.182948e-02" style="stop-color:#8BD2CC"/>
	<stop  offset="0.1739" style="stop-color:#65C8BE"/>
	<stop  offset="0.2616" style="stop-color:#46BFB1"/>
	<stop  offset="0.3563" style="stop-color:#2CB7A8"/>
	<stop  offset="0.4609" style="stop-color:#18B2A0"/>
	<stop  offset="0.5808" style="stop-color:#0BAE9B"/>
	<stop  offset="0.729" style="stop-color:#02AB97"/>
	<stop  offset="0.9916" style="stop-color:#00AB97"/>
</linearGradient>
<path class="st4" d="M9.8,4.6c0,0.9,0,1.7,0,2.6c0,0.3,0,0.7,0,1.1C9.7,8.7,9.4,9.1,9,9.4c-0.8,0.5-1.8,0.5-2.6,0
	C5.8,9.1,5.5,8.5,5.6,7.9l0.3-2.8C6,4.2,6.1,3.3,6.2,2.4c0-0.3,0.1-0.6,0.2-0.9c0.3-0.4,0.7-0.6,1.1-0.7c0.6-0.1,1.2,0,1.7,0.2
	c0.4,0.2,0.6,0.6,0.6,1C9.8,2.9,9.8,3.7,9.8,4.6z M9,5.2C9,4.7,9,4.3,9,4c0-0.6,0-1.2,0-1.8C9,2,8.9,1.8,8.7,1.8
	C8.2,1.5,7.7,1.6,7.2,1.8C7.1,1.9,7,2,7,2.2C6.9,2.8,6.9,3.4,6.8,4L6.5,6C6.5,6.7,6.4,7.3,6.3,8C6.3,8.3,6.4,8.6,6.7,8.7
	c0.6,0.4,1.3,0.4,1.9,0C8.8,8.6,9,8.3,8.9,8C8.9,7,8.9,6,9,5.2z"/>
<linearGradient id="SVGID_6_" gradientUnits="userSpaceOnUse" x1="6.8188" y1="8.2063" x2="13.2088" y2="8.2063" gradientTransform="matrix(1 0 0 -1 0 24)">
	<stop  offset="0" style="stop-color:#BFE2E0"/>
	<stop  offset="1.604389e-02" style="stop-color:#B5DFDC"/>
	<stop  offset="9.182948e-02" style="stop-color:#8BD2CC"/>
	<stop  offset="0.1739" style="stop-color:#65C8BE"/>
	<stop  offset="0.2616" style="stop-color:#46BFB1"/>
	<stop  offset="0.3563" style="stop-color:#2CB7A8"/>
	<stop  offset="0.4609" style="stop-color:#18B2A0"/>
	<stop  offset="0.5808" style="stop-color:#0BAE9B"/>
	<stop  offset="0.729" style="stop-color:#02AB97"/>
	<stop  offset="0.9916" style="stop-color:#00AB97"/>
</linearGradient>
<path class="st5" d="M6.8,15.8c0-0.2,0-0.5,0-0.7c0-0.4,0.4-0.6,0.8-0.6h0.9c0.2,0,0.2-0.1,0.2-0.2c0-0.3,0-0.6,0-1
	c0-0.4,0.3-0.7,0.7-0.7c0,0,0,0,0,0h1c0.4-0.1,0.8,0.2,0.8,0.6c0,0.1,0,0.1,0,0.2c0,0.3,0,0.6,0,0.9c0,0.1,0,0.1,0.1,0.1h0.9
	c0.5,0,0.8,0.2,0.8,0.8c0,0.4,0,0.8,0,1.2c0,0.4-0.3,0.6-0.7,0.6h-1c-0.1,0-0.2,0-0.2,0.2c0,0.4,0,0.7,0,1.1c0,0.3-0.3,0.6-0.6,0.6
	C10.2,19,9.8,19,9.3,19c-0.3,0-0.6-0.3-0.6-0.7c0-0.3,0-0.6,0-1s-0.1-0.2-0.2-0.2s-0.6,0-0.9,0c-0.4,0-0.7-0.3-0.7-0.6
	c0,0,0-0.1,0-0.1L6.8,15.8L6.8,15.8z M10.5,17.4L10.5,17.4V17c0-0.4,0.2-0.7,0.5-0.7c0.1,0,0.1,0,0.2,0h1c0.1,0,0.1,0,0.1-0.2
	c0-0.2,0-0.4,0-0.6c0-0.1,0-0.2-0.2-0.2h-1c-0.4,0-0.7-0.2-0.7-0.5c0-0.1,0-0.1,0-0.2v-1c0-0.1,0-0.1-0.1-0.1s-0.4,0-0.6,0
	s-0.2,0-0.2,0.2c0,0.3,0,0.7,0,1c0,0.3-0.2,0.6-0.5,0.6c0,0,0,0,0,0c-0.4,0-0.8,0-1.2,0c-0.1,0-0.1,0-0.1,0.1s0,0.4,0,0.6
	s0,0.2,0.2,0.2h1c0.4-0.1,0.7,0.2,0.7,0.5c0,0.1,0,0.1,0,0.2c0,0.3,0,0.7,0,1c0,0.1,0,0.1,0.1,0.1h0.7c0.1,0,0.1,0,0.1-0.1
	L10.5,17.4z"/>
<linearGradient id="SVGID_7_" gradientUnits="userSpaceOnUse" x1="-80.7256" y1="-19.4643" x2="-0.4887" y2="-19.4643">
	<stop  offset="4.516136e-02" style="stop-color:#BFE2E0"/>
	<stop  offset="0.9916" style="stop-color:#00AB97"/>
</linearGradient>
<circle class="st6" cx="-40.6" cy="-19.5" r="40.1"/>
</svg>
