<svg id="Capa_1" data-name="Capa 1" xmlns="http://www.w3.org/2000/svg" xmlns:xlink="http://www.w3.org/1999/xlink" viewBox="0 0 20 21.65"><defs><style>.cls-1{fill:url(#Degradado_sin_nombre_9);}.cls-2{fill:url(#Degradado_sin_nombre_9-2);}.cls-3{fill:url(#Degradado_sin_nombre_9-3);}.cls-4{fill:url(#Degradado_sin_nombre_9-4);}.cls-5{fill:url(#Degradado_sin_nombre_9-5);}.cls-6{fill:url(#Degradado_sin_nombre_9-6);}</style><linearGradient id="Degradado_sin_nombre_9" x1="1.59" y1="15.8" x2="18.41" y2="15.8" gradientUnits="userSpaceOnUse"><stop offset="0" stop-color="#8bbdb3"/><stop offset="0.99" stop-color="#5fa593"/><stop offset="0.99" stop-color="#5fa593"/></linearGradient><linearGradient id="Degradado_sin_nombre_9-2" x1="0.5" y1="5.24" x2="5.53" y2="5.24" xlink:href="#Degradado_sin_nombre_9"/><linearGradient id="Degradado_sin_nombre_9-3" x1="14.49" y1="5.24" x2="19.5" y2="5.24" xlink:href="#Degradado_sin_nombre_9"/><linearGradient id="Degradado_sin_nombre_9-4" x1="10.19" y1="5.24" x2="14.48" y2="5.24" xlink:href="#Degradado_sin_nombre_9"/><linearGradient id="Degradado_sin_nombre_9-5" x1="5.53" y1="5.25" x2="9.82" y2="5.25" xlink:href="#Degradado_sin_nombre_9"/><linearGradient id="Degradado_sin_nombre_9-6" x1="6.82" y1="15.81" x2="13.21" y2="15.81" xlink:href="#Degradado_sin_nombre_9"/></defs><path class="cls-1" d="M10,10.73h7.68a.67.67,0,0,1,.76.76c0,2.7,0,5.41,0,8.12a1.08,1.08,0,0,1-1.14,1.27H2.69a1,1,0,0,1-1.08-1.08c0-2.78,0-5.56,0-8.34a.65.65,0,0,1,.74-.73Zm0,.84H2.65c-.2,0-.23.06-.23.25,0,2.61,0,5.23,0,7.84,0,.37,0,.38.38.38H17.19c.36,0,.38,0,.38-.38,0-2.63,0-5.25,0-7.88,0-.17,0-.21-.21-.21Z"/><path class="cls-2" d="M2.39,9.7a2.36,2.36,0,0,1-.79-.11,1.43,1.43,0,0,1-1-1.84C1,5.87,1.43,4,1.85,2.09a1.39,1.39,0,0,1,.78-1A2.51,2.51,0,0,1,4.69.92,1.14,1.14,0,0,1,5.5,2.37c-.11.69-.2,1.4-.29,2.1S5,6.08,4.87,6.89a7.4,7.4,0,0,1-.2,1.25A2,2,0,0,1,2.9,9.67,2.91,2.91,0,0,1,2.39,9.7Zm0-.8h.16A1.3,1.3,0,0,0,4,7.73c.15-.87.26-1.75.38-2.63l.39-3c0-.26,0-.33-.23-.42a1.76,1.76,0,0,0-1.62.15.5.5,0,0,0-.22.34c-.06.3-.14.6-.21.9l-1.14,5a.49.49,0,0,0,.21.53A1.26,1.26,0,0,0,2.39,8.9Z"/><path class="cls-3" d="M17.66,9.71a2.79,2.79,0,0,1-1.55-.44,1.86,1.86,0,0,1-.88-1.47c-.08-.74-.19-1.48-.29-2.22s-.19-1.4-.28-2.1c-.05-.46-.11-.91-.16-1.36A1,1,0,0,1,15,1.06a2.5,2.5,0,0,1,2.52.11,1.54,1.54,0,0,1,.65,1.07c.42,1.87.83,3.73,1.25,5.6a1.41,1.41,0,0,1-1.14,1.78A2,2,0,0,1,17.66,9.71Zm-.09-.79a1.64,1.64,0,0,0,.81-.18.53.53,0,0,0,.3-.68c-.05-.26-.11-.52-.17-.78l-1.11-5a.68.68,0,0,0-.37-.5,1.84,1.84,0,0,0-1.47-.1c-.27.1-.31.19-.27.48s.11.86.17,1.3c.1.72.2,1.44.29,2.16s.18,1.26.24,1.9a1.3,1.3,0,0,0,1.09,1.33A2.4,2.4,0,0,0,17.57,8.92Z"/><path class="cls-4" d="M10.23,5c0-.87,0-1.76,0-2.66A1.28,1.28,0,0,1,11.32.87a2.44,2.44,0,0,1,1.92.23,1.32,1.32,0,0,1,.65,1.17c.07.73.15,1.47.22,2.2s.13,1.28.2,1.92c0,.48.12,1,.16,1.44a1.59,1.59,0,0,1-1.3,1.78,2.54,2.54,0,0,1-2.33-.45A1.51,1.51,0,0,1,10.27,8C10.26,7,10.28,6,10.23,5ZM11,5c0,1,.06,1.94,0,2.9a.76.76,0,0,0,.37.69,1.81,1.81,0,0,0,1.84.1.67.67,0,0,0,.39-.56,3.59,3.59,0,0,0-.05-.8c-.06-.61-.13-1.23-.2-1.85l-.18-1.69c-.05-.55-.1-1.1-.16-1.65a.49.49,0,0,0-.31-.42,1.74,1.74,0,0,0-1.48,0,.43.43,0,0,0-.3.45C11,3.13,11.06,4.09,11,5Z"/><path class="cls-5" d="M9.78,4.57c0,.87,0,1.73,0,2.59a6.14,6.14,0,0,1,0,1.05,1.54,1.54,0,0,1-.8,1.14,2.55,2.55,0,0,1-2.6,0,1.38,1.38,0,0,1-.77-1.44l.3-2.85c.1-.88.18-1.77.28-2.65a2.07,2.07,0,0,1,.22-.91A1.76,1.76,0,0,1,7.53.83a2.39,2.39,0,0,1,1.66.23,1.05,1.05,0,0,1,.63,1C9.83,2.9,9.79,3.74,9.78,4.57ZM9,5.23C9,4.69,9,4.33,9,4c0-.61,0-1.22,0-1.83a.39.39,0,0,0-.26-.41,1.74,1.74,0,0,0-1.57.06A.43.43,0,0,0,7,2.17c-.06.62-.13,1.24-.2,1.87L6.54,6c-.07.65-.14,1.31-.22,2a.68.68,0,0,0,.34.73,1.77,1.77,0,0,0,1.9,0A.72.72,0,0,0,8.94,8C8.93,7,8.94,6,9,5.23Z"/><path class="cls-6" d="M6.83,15.81a5.61,5.61,0,0,1,0-.71.69.69,0,0,1,.75-.6h.94c.16,0,.19-.05.19-.19,0-.33,0-.65,0-1a.71.71,0,0,1,.72-.72h1a.75.75,0,0,1,.85.83c0,.3,0,.61,0,.91,0,.12,0,.15.15.15h.88c.54,0,.81.22.84.75a6.42,6.42,0,0,1,0,1.24.68.68,0,0,1-.69.61h-1c-.12,0-.17,0-.16.17a8.13,8.13,0,0,1,0,1.1.64.64,0,0,1-.58.61,5.63,5.63,0,0,1-1.42,0,.63.63,0,0,1-.57-.67c0-.32,0-.65,0-1s-.05-.22-.22-.21-.62,0-.92,0a.7.7,0,0,1-.75-.73v-.56Zm3.64,1.63h0V17a.64.64,0,0,1,.71-.72h1c.12,0,.15,0,.15-.16a5.61,5.61,0,0,1,0-.58c0-.15,0-.2-.18-.19h-1a.64.64,0,0,1-.72-.74v-1c0-.12,0-.15-.14-.15s-.4,0-.6,0-.2,0-.19.19c0,.34,0,.69,0,1a.59.59,0,0,1-.56.64c-.4,0-.8,0-1.2,0-.1,0-.14,0-.14.13s0,.43,0,.64,0,.16.16.16h1a.65.65,0,0,1,.74.76c0,.33,0,.66,0,1,0,.09,0,.13.12.13h.68c.11,0,.14,0,.13-.14Z"/></svg>