<?xml version="1.0" encoding="utf-8"?>
<!-- Generator: Adobe Illustrator 25.2.3, SVG Export Plug-In . SVG Version: 6.00 Build 0)  -->
<svg version="1.1" id="Capa_1" xmlns="http://www.w3.org/2000/svg" xmlns:xlink="http://www.w3.org/1999/xlink" x="0px" y="0px"
	 viewBox="0 0 20 21.6" style="enable-background:new 0 0 20 21.6;" xml:space="preserve">
<style type="text/css">
	.st0{fill:url(#SVGID_1_);}
	.st1{fill:url(#SVGID_2_);}
	.st2{fill:url(#SVGID_3_);}
	.st3{fill:url(#SVGID_4_);}
	.st4{fill:url(#SVGID_5_);}
	.st5{fill:url(#SVGID_6_);}
</style>
<linearGradient id="SVGID_1_" gradientUnits="userSpaceOnUse" x1="779.8851" y1="567.2654" x2="860.1221" y2="567.2654">
	<stop  offset="0" style="stop-color:#F7BCBB"/>
	<stop  offset="0.9916" style="stop-color:#EA5284"/>
</linearGradient>
<circle class="st0" cx="820" cy="567.3" r="40.1"/>
<linearGradient id="SVGID_2_" gradientUnits="userSpaceOnUse" x1="6.6341" y1="14.8956" x2="16.6542" y2="14.8956" gradientTransform="matrix(1 0 0 -1 0 24)">
	<stop  offset="0" style="stop-color:#F7BCBB"/>
	<stop  offset="0.9916" style="stop-color:#EA5284"/>
</linearGradient>
<path class="st1" d="M6.9,4.2l5,3.8c0.3,0.2,0.6,0.4,0.9,0.6c1.5,1,1.8,1,3.8,0.9c0.1,0.7,0.1,1.5-0.2,2.1c-0.1,0.1-0.2,0.2-0.3,0.2
	c-1,0.4-1.9,1-2.7,1.8c-0.7,0.7-1,0.6-1.5-0.2c-0.1-0.1-0.1-0.2-0.1-0.3c-0.7-2.3-2.5-3.5-4.4-4.3C6.8,8.7,6.5,8.2,6.6,7.7
	C6.8,6.5,6.8,5.4,6.9,4.2z"/>
<linearGradient id="SVGID_3_" gradientUnits="userSpaceOnUse" x1="18.151" y1="14.1163" x2="20.074" y2="14.1163" gradientTransform="matrix(1 0 0 -1 0 24)">
	<stop  offset="0" style="stop-color:#F7BCBB"/>
	<stop  offset="0.9916" style="stop-color:#EA5284"/>
</linearGradient>
<path class="st2" d="M18.2,11.2c0-0.7,0-1.3,0-1.9c0-0.1,0.1-0.3,0.1-0.3c0.5-0.2,1-0.3,1.5-0.3c0.4,0,0.4,0.3,0.3,0.6
	C19.6,10,18.9,10.7,18.2,11.2z"/>
<linearGradient id="SVGID_4_" gradientUnits="userSpaceOnUse" x1="6.4038" y1="3.4485" x2="9.4442" y2="3.4485" gradientTransform="matrix(1 0 0 -1 0 24)">
	<stop  offset="0" style="stop-color:#F7BCBB"/>
	<stop  offset="0.9916" style="stop-color:#EA5284"/>
</linearGradient>
<path class="st3" d="M6.4,21l1.7-1.3c0.3,0.3,0.7,0.5,1,0.8c0.3,0.3,0.3,0.7-0.2,0.8C8.1,21.5,7.2,21.4,6.4,21z"/>
<linearGradient id="SVGID_5_" gradientUnits="userSpaceOnUse" x1="-2.988233e-02" y1="14.1974" x2="7.0026" y2="14.1974" gradientTransform="matrix(1 0 0 -1 0 24)">
	<stop  offset="0" style="stop-color:#F7BCBB"/>
	<stop  offset="0.9916" style="stop-color:#EA5284"/>
</linearGradient>
<path class="st4" d="M5.1,15C5,13.4,5,11.9,5,10.3C5.3,6.8,5.6,3.2,5.9-0.3H0C-0.1,1.5,0,3.3,0.3,5c0.3,2,0.9,4,1.4,6
	s0.7,4.2-0.7,6.1c0,0.1-0.1,0.1-0.1,0.2c-0.4,1-0.3,1.3,0.8,1.5c1,0.1,2,0.4,2.9,1c0.1,0.1,0.3,0.1,0.5,0.1c0.6-0.3,1.2-0.7,2-1.2
	C5.4,17.9,5.2,16.4,5.1,15z"/>
<linearGradient id="SVGID_6_" gradientUnits="userSpaceOnUse" x1="-108.6185" y1="-38.5" x2="-28.3815" y2="-38.5">
	<stop  offset="0" style="stop-color:#F7BCBB"/>
	<stop  offset="0.9916" style="stop-color:#EA5284"/>
</linearGradient>
<circle class="st5" cx="-68.5" cy="-38.5" r="40.1"/>
</svg>
