<svg id="Capa_1" data-name="Capa 1" xmlns="http://www.w3.org/2000/svg" xmlns:xlink="http://www.w3.org/1999/xlink" viewBox="0 0 20 21.65"><defs><style>.cls-1{fill:url(#Degradado_sin_nombre_54);}.cls-2{fill:url(#Degradado_sin_nombre_54-2);}.cls-3{fill:url(#Degradado_sin_nombre_54-3);}.cls-4{fill:url(#Degradado_sin_nombre_54-4);}</style><linearGradient id="Degradado_sin_nombre_54" x1="7.06" y1="9.55" x2="15.76" y2="9.55" gradientUnits="userSpaceOnUse"><stop offset="0.25" stop-color="#e2b9b8"/><stop offset="0.99" stop-color="#c76486"/><stop offset="1" stop-color="#c76486"/></linearGradient><linearGradient id="Degradado_sin_nombre_54-2" x1="17.06" y1="10.23" x2="18.73" y2="10.23" xlink:href="#Degradado_sin_nombre_54"/><linearGradient id="Degradado_sin_nombre_54-3" x1="6.86" y1="19.5" x2="9.5" y2="19.5" xlink:href="#Degradado_sin_nombre_54"/><linearGradient id="Degradado_sin_nombre_54-4" x1="1.27" y1="10.17" x2="7.38" y2="10.17" xlink:href="#Degradado_sin_nombre_54"/></defs><path class="cls-1" d="M7.32,5.26,11.63,8.6a7.29,7.29,0,0,0,.74.49c1.33.84,1.52.88,3.32.76a3.38,3.38,0,0,1-.17,1.86.4.4,0,0,1-.26.21,6,6,0,0,0-2.33,1.53c-.59.58-.89.53-1.33-.19a.84.84,0,0,1-.12-.23c-.57-2-2.13-3-3.85-3.76a.78.78,0,0,1-.56-.93C7.18,7.33,7.24,6.32,7.32,5.26Z"/><path class="cls-2" d="M17.06,11.33c0-.6,0-1.13,0-1.67,0-.08.05-.23.11-.25a6.93,6.93,0,0,1,1.26-.28c.34,0,.35.27.23.53A3.9,3.9,0,0,1,17.06,11.33Z"/><path class="cls-3" d="M6.86,19.91l1.51-1.16c.3.23.63.46.91.72s.28.6-.17.7A3.83,3.83,0,0,1,6.86,19.91Z"/><path class="cls-4" d="M5.73,14.66a32.39,32.39,0,0,1-.06-4.06Q6,6,6.43,1.4H1.32A21,21,0,0,0,1.52,6c.28,1.76.81,3.48,1.2,5.23s.58,3.65-.64,5.3a.59.59,0,0,0-.06.14c-.38.88-.23,1.17.71,1.29a5.82,5.82,0,0,1,2.49.85.53.53,0,0,0,.42.1c.55-.27,1.07-.59,1.74-1C6,17.15,5.81,15.9,5.73,14.66Z"/></svg>