<?xml version="1.0" encoding="utf-8"?>
<!-- Generator: Adobe Illustrator 25.2.3, SVG Export Plug-In . SVG Version: 6.00 Build 0)  -->
<svg version="1.1" id="Capa_1" xmlns="http://www.w3.org/2000/svg" xmlns:xlink="http://www.w3.org/1999/xlink" x="0px" y="0px"
	 viewBox="0 0 20 21.6" style="enable-background:new 0 0 20 21.6;" xml:space="preserve">
<style type="text/css">
	.st0{fill:none;stroke:url(#SVGID_1_);stroke-width:0.5;stroke-linecap:round;stroke-linejoin:round;stroke-miterlimit:10;}
	.st1{fill:url(#SVGID_2_);}
	.st2{fill:url(#SVGID_3_);}
	.st3{fill:url(#SVGID_4_);}
	.st4{fill:url(#SVGID_5_);}
	.st5{fill:url(#SVGID_6_);}
</style>
<g>
	<linearGradient id="SVGID_1_" gradientUnits="userSpaceOnUse" x1="3.249937e-02" y1="11.6356" x2="18.3633" y2="11.6356">
		<stop  offset="0" style="stop-color:#FAD2C6"/>
		<stop  offset="0.1383" style="stop-color:#EFABBB"/>
		<stop  offset="0.3549" style="stop-color:#E073AC"/>
		<stop  offset="0.5561" style="stop-color:#D448A1"/>
		<stop  offset="0.7356" style="stop-color:#CB2898"/>
		<stop  offset="0.8869" style="stop-color:#C61593"/>
		<stop  offset="0.9916" style="stop-color:#C40E91"/>
	</linearGradient>
	<path class="st0" d="M18.1,4.9V4.3c0,0,0-0.1,0-0.1c0,0-0.1,0-0.1,0l-0.3,0.3c-0.6,0.7-1.3,1.3-1.9,1.9c-0.1,0.1-0.1,0.2-0.1,0.3
		c0.1,1-0.6,1.9-1.6,2c-0.3,0-0.6,0-0.8-0.1c-0.6-0.2-1-0.7-1.1-1.3c-0.1-0.6,0.1-1.2,0.5-1.6C13,5.3,13.5,5.2,14,5.2
		c0.3,0,0.3,0,0.6-0.2l0,0l1.6-1.6l0.5-0.5c0,0,0.1,0,0-0.1s-0.1,0-0.1,0h-0.2c-0.8,0-1.7,0-2.5,0h-2.3h-1.4C10,2.8,9.8,2.9,9.6,3
		L8.3,4.3L5.1,7.5l-3.2,3.2l-1.5,1.5c-0.1,0.1-0.1,0.1,0,0.3l3,3l0.9,0.8l1.1,1.1l1.2,1.2l1.8,1.8c0.1,0.1,0.1,0.1,0.2,0
		c0.9-0.9,1.7-1.8,2.6-2.6l2.7-2.7l1.2-1.2l2.7-2.7c0.1-0.1,0.2-0.3,0.2-0.5c0-0.3,0-0.5,0-0.8c0-0.8,0-1.6,0-2.3S18.1,5.8,18.1,4.9
		z"/>
	<linearGradient id="SVGID_2_" gradientUnits="userSpaceOnUse" x1="13.0906" y1="4.4186" x2="19.7175" y2="4.4186">
		<stop  offset="0" style="stop-color:#FAD2C6"/>
		<stop  offset="0.1383" style="stop-color:#EFABBB"/>
		<stop  offset="0.3549" style="stop-color:#E073AC"/>
		<stop  offset="0.5561" style="stop-color:#D448A1"/>
		<stop  offset="0.7356" style="stop-color:#CB2898"/>
		<stop  offset="0.8869" style="stop-color:#C61593"/>
		<stop  offset="0.9916" style="stop-color:#C40E91"/>
	</linearGradient>
	<path class="st1" d="M14.5,7.2c0.1,0,0.1,0,0.1-0.1s0.1-0.1,0.1-0.2c0.1-0.1,0.2-0.2,0.3-0.3c0.9-0.9,1.8-1.8,2.7-2.7l1.9-1.9
		c0.1-0.1,0.1-0.1,0-0.2l-0.6-0.5c-0.1-0.1-0.1-0.1-0.2,0l-1.6,1.6l-2.9,2.9C14.3,5.8,14.1,6,14,6.2c0,0-0.1,0.1-0.2,0.1
		c-0.2,0-0.3,0-0.4,0.1c-0.3,0.2-0.4,0.7-0.2,1c0.1,0.1,0.2,0.2,0.3,0.2c0.4,0.2,0.8,0,1-0.4C14.5,7.3,14.6,7.2,14.5,7.2z"/>
	<linearGradient id="SVGID_3_" gradientUnits="userSpaceOnUse" x1="9.0997" y1="12.1892" x2="11.452" y2="12.1892">
		<stop  offset="0" style="stop-color:#FAD2C6"/>
		<stop  offset="0.1383" style="stop-color:#EFABBB"/>
		<stop  offset="0.3549" style="stop-color:#E073AC"/>
		<stop  offset="0.5561" style="stop-color:#D448A1"/>
		<stop  offset="0.7356" style="stop-color:#CB2898"/>
		<stop  offset="0.8869" style="stop-color:#C61593"/>
		<stop  offset="0.9916" style="stop-color:#C40E91"/>
	</linearGradient>
	<path class="st2" d="M11.4,12.3c0,0.5-0.5,1-1,1c-0.3,0-0.6-0.2-0.8-0.4c-0.2-0.2-0.4-0.4-0.5-0.6c0-0.1-0.1-0.2-0.1-0.3
		c0-0.6,0.4-1,1-1c0.2,0,0.3,0,0.5,0.1c0.3,0.1,0.6,0.4,0.7,0.6C11.4,12,11.5,12.1,11.4,12.3z M10.6,12.6c0.1,0,0.2,0,0.2-0.1
		c0,0,0,0,0,0c0-0.1,0-0.1-0.1-0.1c-0.2-0.2-0.4-0.4-0.6-0.5c-0.1,0-0.2,0-0.2,0c-0.1,0.1-0.1,0.2,0,0.2c0.1,0.1,0.2,0.2,0.3,0.3
		C10.3,12.5,10.4,12.6,10.6,12.6z"/>
	<linearGradient id="SVGID_4_" gradientUnits="userSpaceOnUse" x1="7.1682" y1="12.6326" x2="9.83" y2="12.6326">
		<stop  offset="0" style="stop-color:#FAD2C6"/>
		<stop  offset="0.1383" style="stop-color:#EFABBB"/>
		<stop  offset="0.3549" style="stop-color:#E073AC"/>
		<stop  offset="0.5561" style="stop-color:#D448A1"/>
		<stop  offset="0.7356" style="stop-color:#CB2898"/>
		<stop  offset="0.8869" style="stop-color:#C61593"/>
		<stop  offset="0.9916" style="stop-color:#C40E91"/>
	</linearGradient>
	<path class="st3" d="M9.8,14.6c0,0,0,0.1-0.1,0.1l-0.3,0.4c-0.1,0.1-0.1,0.1-0.1,0l-0.8-1.8c-0.4-0.8-0.8-1.6-1.1-2.4
		c0-0.1-0.1-0.2-0.2-0.3c0,0,0-0.1,0-0.1l0.4-0.5c0.1-0.1,0.1-0.1,0.1,0c0.2,0.4,0.4,0.8,0.6,1.2s0.5,1,0.7,1.5l0.8,1.7L9.8,14.6z"
		/>
	<linearGradient id="SVGID_5_" gradientUnits="userSpaceOnUse" x1="5.5495" y1="13.071" x2="7.9043" y2="13.071">
		<stop  offset="0" style="stop-color:#FAD2C6"/>
		<stop  offset="0.1383" style="stop-color:#EFABBB"/>
		<stop  offset="0.3549" style="stop-color:#E073AC"/>
		<stop  offset="0.5561" style="stop-color:#D448A1"/>
		<stop  offset="0.7356" style="stop-color:#CB2898"/>
		<stop  offset="0.8869" style="stop-color:#C61593"/>
		<stop  offset="0.9916" style="stop-color:#C40E91"/>
	</linearGradient>
	<path class="st4" d="M5.5,13c0-0.6,0.4-1,1-1c0.1,0,0.2,0,0.3,0C7,12,7.3,12.1,7.4,12.3c0.2,0.1,0.3,0.3,0.4,0.4
		c0.2,0.4,0.1,0.8-0.2,1.1c-0.3,0.4-0.9,0.5-1.3,0.2c-0.2-0.1-0.4-0.3-0.6-0.5C5.6,13.4,5.5,13.2,5.5,13z M7,13.5
		c0.1,0,0.1,0,0.1-0.1c0-0.1,0-0.1,0-0.2C7,13,6.8,12.8,6.5,12.7c-0.1-0.1-0.2-0.1-0.2,0c-0.1,0.1,0,0.2,0,0.2
		c0.2,0.2,0.3,0.3,0.5,0.4C6.9,13.4,7,13.5,7,13.5z"/>
</g>
<linearGradient id="SVGID_6_" gradientUnits="userSpaceOnUse" x1="-91.6185" y1="-34.5" x2="-11.3815" y2="-34.5">
	<stop  offset="0" style="stop-color:#FAD2C6"/>
	<stop  offset="0.1383" style="stop-color:#EFABBB"/>
	<stop  offset="0.3549" style="stop-color:#E073AC"/>
	<stop  offset="0.5561" style="stop-color:#D448A1"/>
	<stop  offset="0.7356" style="stop-color:#CB2898"/>
	<stop  offset="0.8869" style="stop-color:#C61593"/>
	<stop  offset="0.9916" style="stop-color:#C40E91"/>
</linearGradient>
<circle class="st5" cx="-51.5" cy="-34.5" r="40.1"/>
</svg>
