<svg id="Capa_1" data-name="Capa 1" xmlns="http://www.w3.org/2000/svg" xmlns:xlink="http://www.w3.org/1999/xlink" viewBox="0 0 20 21.65"><defs><style>.cls-1{fill:url(#Degradado_sin_nombre_18);}.cls-2{fill:url(#Degradado_sin_nombre_18-2);}.cls-3{fill:url(#Degradado_sin_nombre_18-3);}</style><linearGradient id="Degradado_sin_nombre_18" x1="2.46" y1="14.58" x2="14.38" y2="14.58" gradientUnits="userSpaceOnUse"><stop offset="0" stop-color="#ca87a6"/><stop offset="0.99" stop-color="#80007d"/><stop offset="1" stop-color="#80007d"/></linearGradient><linearGradient id="Degradado_sin_nombre_18-2" x1="4.48" y1="4.41" x2="15.41" y2="4.41" xlink:href="#Degradado_sin_nombre_18"/><linearGradient id="Degradado_sin_nombre_18-3" x1="14.18" y1="6.96" x2="17.54" y2="6.96" xlink:href="#Degradado_sin_nombre_18"/></defs><path class="cls-1" d="M11.31,8.17H5.86c-.4,0-1.36,1.24-2.29,2.57C2.2,12.71,2.5,18.68,2.48,19a1.85,1.85,0,0,0,1.84,2h8.12a1.85,1.85,0,0,0,1.85-1.94c0-.38.51-6.62-.84-8.53C12.58,9.29,11.69,8.17,11.31,8.17ZM13.57,18.5A1.62,1.62,0,0,1,12,20.2H4.83a1.61,1.61,0,0,1-1.62-1.71c0-.31-.25-5.55,1-7.28C5,10,5.83,9,6.17,9H11c.34,0,1.12,1,1.88,2.06C14,12.7,13.56,18.17,13.57,18.5Z"/><path class="cls-2" d="M5.15,4a15.49,15.49,0,0,1,1.6-.46v1.6h-1a.51.51,0,0,0-.51.51v2a.51.51,0,0,0,.51.51h5.61a.51.51,0,0,0,.52-.51v-2a.51.51,0,0,0-.52-.51h-.93V3.41a17.33,17.33,0,0,1,3.1,1,.85.85,0,0,0,1-.29l.72-1a.63.63,0,0,0-.23-.92A16.24,16.24,0,0,0,11,.72a15.77,15.77,0,0,0-5.33.66,1,1,0,0,0-.73.71l-.39,1.3A.51.51,0,0,0,5.15,4Zm6,2.07V7.24a.31.31,0,0,1-.31.31H6.29A.3.3,0,0,1,6,7.24V6.09a.3.3,0,0,1,.3-.31h4.59A.31.31,0,0,1,11.19,6.09ZM9.81,5.16H7.4V3.43a8.75,8.75,0,0,1,1.52-.18h0a6.68,6.68,0,0,1,.88,0ZM5.27,2.77l.28-.58a.81.81,0,0,1,.59-.4,18,18,0,0,1,4.32-.48,22.74,22.74,0,0,1,3.89,1.16.38.38,0,0,1,.11.63l-.2.37a.89.89,0,0,1-.82.16,14.06,14.06,0,0,0-3.83-1,25.8,25.8,0,0,0-3.82.46C5.48,3.2,5.17,3,5.27,2.77Z"/><path class="cls-3" d="M15.51,4.36a10.08,10.08,0,0,0-1.32,3.7,1.68,1.68,0,0,0,3.34-.33A10.38,10.38,0,0,0,15.51,4.36Zm.43,4.38a1.06,1.06,0,0,1-1.15-1,6.17,6.17,0,0,1,.83-2.32,6.55,6.55,0,0,1,1.27,2.11A1.06,1.06,0,0,1,15.94,8.74Z"/></svg>