<?xml version="1.0" encoding="utf-8"?>
<!-- Generator: Adobe Illustrator 25.2.3, SVG Export Plug-In . SVG Version: 6.00 Build 0)  -->
<svg version="1.1" id="Capa_1" xmlns="http://www.w3.org/2000/svg" xmlns:xlink="http://www.w3.org/1999/xlink" x="0px" y="0px"
	 viewBox="0 0 20 21.6" style="enable-background:new 0 0 20 21.6;" xml:space="preserve">
<style type="text/css">
	.st0{fill:url(#SVGID_1_);}
	.st1{fill:url(#SVGID_2_);}
	.st2{fill:url(#SVGID_3_);}
	.st3{fill:url(#SVGID_4_);}
</style>
<linearGradient id="SVGID_1_" gradientUnits="userSpaceOnUse" x1="2.4652" y1="9.415" x2="14.3845" y2="9.415" gradientTransform="matrix(1 0 0 -1 0 24)">
	<stop  offset="0" style="stop-color:#F6B2B6"/>
	<stop  offset="0.2427" style="stop-color:#E291AB"/>
	<stop  offset="0.7743" style="stop-color:#B13D8D"/>
	<stop  offset="0.9916" style="stop-color:#9C1981"/>
</linearGradient>
<path class="st0" d="M11.3,8.2H5.9c-0.4,0-1.4,1.2-2.3,2.6c-1.4,2-1.1,7.9-1.1,8.3c-0.1,1,0.7,1.9,1.7,2c0,0,0.1,0,0.1,0h8.1
	c1,0,1.9-0.8,1.9-1.8c0,0,0-0.1,0-0.1c0-0.4,0.5-6.6-0.8-8.5C12.6,9.3,11.7,8.2,11.3,8.2z M13.6,18.5c0,0.9-0.6,1.7-1.5,1.7
	c0,0,0,0,0,0H4.8c-0.9,0-1.6-0.7-1.6-1.6c0,0,0-0.1,0-0.1c0-0.3-0.3-5.6,1-7.3C5,10,5.8,9,6.2,9H11c0.3,0,1.1,1,1.9,2.1
	C14,12.7,13.6,18.2,13.6,18.5z"/>
<linearGradient id="SVGID_2_" gradientUnits="userSpaceOnUse" x1="4.48" y1="19.569" x2="15.41" y2="19.569" gradientTransform="matrix(1 0 0 -1 0 24)">
	<stop  offset="0" style="stop-color:#F6B2B6"/>
	<stop  offset="0.2427" style="stop-color:#E291AB"/>
	<stop  offset="0.7743" style="stop-color:#B13D8D"/>
	<stop  offset="0.9916" style="stop-color:#9C1981"/>
</linearGradient>
<path class="st1" d="M5.2,4c0.5-0.2,1.1-0.3,1.6-0.5v1.6h-1c-0.3,0-0.5,0.2-0.5,0.5l0,0v2c0,0.3,0.2,0.5,0.5,0.5h0h5.6
	c0.3,0,0.5-0.2,0.5-0.5c0,0,0,0,0,0v-2c0-0.3-0.2-0.5-0.5-0.5c0,0,0,0,0,0h-0.9V3.4c1.1,0.2,2.1,0.6,3.1,1c0.4,0.1,0.8,0,1-0.3
	l0.7-1c0.2-0.3,0.1-0.7-0.2-0.9c0,0,0,0-0.1,0c-1.3-0.7-2.6-1.2-4-1.5C9.2,0.6,7.4,0.9,5.7,1.4C5.3,1.5,5,1.7,4.9,2.1L4.6,3.4
	C4.5,3.7,4.7,3.9,4.9,4C5,4,5.1,4,5.2,4z M11.1,6.1v1.2c0,0.2-0.1,0.3-0.3,0.3l0,0H6.3C6.1,7.5,6,7.4,6,7.2c0,0,0,0,0,0V6.1
	c0-0.2,0.1-0.3,0.3-0.3c0,0,0,0,0,0h4.6C11.1,5.8,11.2,5.9,11.1,6.1L11.1,6.1z M9.8,5.2H7.4V3.4c0.5-0.1,1-0.2,1.5-0.2l0,0
	c0.3,0,0.6,0,0.9,0L9.8,5.2z M5.3,2.8l0.3-0.6C5.7,2,5.9,1.8,6.1,1.8C7.6,1.5,9,1.3,10.5,1.3c1.3,0.3,2.6,0.7,3.9,1.2
	c0.2,0.1,0.3,0.3,0.2,0.5c0,0.1-0.1,0.1-0.1,0.1l-0.2,0.4c-0.2,0.2-0.5,0.2-0.8,0.2c-1.2-0.5-2.5-0.8-3.8-1C8.3,2.7,7.1,2.8,5.8,3.1
	C5.5,3.2,5.2,3,5.3,2.8z"/>
<linearGradient id="SVGID_3_" gradientUnits="userSpaceOnUse" x1="14.18" y1="17.0718" x2="17.54" y2="17.0718" gradientTransform="matrix(1 0 0 -1 0 24)">
	<stop  offset="0" style="stop-color:#F6B2B6"/>
	<stop  offset="0.2427" style="stop-color:#E291AB"/>
	<stop  offset="0.7743" style="stop-color:#B13D8D"/>
	<stop  offset="0.9916" style="stop-color:#9C1981"/>
</linearGradient>
<path class="st2" d="M15.5,4.4c-0.7,1.1-1.1,2.4-1.3,3.7c0.1,0.9,1,1.6,1.9,1.4c0.9-0.1,1.5-0.9,1.4-1.7C17.1,6.5,16.4,5.3,15.5,4.4
	z M15.9,8.7c-0.6,0.1-1.1-0.4-1.1-1c0,0,0,0,0,0c0.1-0.8,0.4-1.6,0.8-2.3c0.6,0.6,1,1.3,1.3,2.1C17,8.1,16.6,8.6,15.9,8.7
	C16,8.7,16,8.7,15.9,8.7z"/>
<linearGradient id="SVGID_4_" gradientUnits="userSpaceOnUse" x1="-100.6185" y1="-34.5" x2="-20.3815" y2="-34.5">
	<stop  offset="0" style="stop-color:#F6B2B6"/>
	<stop  offset="0.2427" style="stop-color:#E291AB"/>
	<stop  offset="0.7743" style="stop-color:#B13D8D"/>
	<stop  offset="0.9916" style="stop-color:#9C1981"/>
</linearGradient>
<circle class="st3" cx="-60.5" cy="-34.5" r="40.1"/>
</svg>
