<?xml version="1.0" encoding="utf-8"?>
<!-- Generator: Adobe Illustrator 25.2.3, SVG Export Plug-In . SVG Version: 6.00 Build 0)  -->
<svg version="1.1" id="Capa_1" xmlns="http://www.w3.org/2000/svg" xmlns:xlink="http://www.w3.org/1999/xlink" x="0px" y="0px"
	 viewBox="0 0 20 21.6" style="enable-background:new 0 0 20 21.6;" xml:space="preserve">
<style type="text/css">
	.st0{fill:url(#SVGID_1_);}
	.st1{fill:url(#SVGID_2_);}
	.st2{fill:url(#SVGID_3_);}
	.st3{fill:url(#SVGID_4_);}
	.st4{fill:url(#SVGID_5_);}
	.st5{fill:url(#SVGID_6_);}
	.st6{fill:url(#SVGID_7_);}
</style>
<linearGradient id="SVGID_1_" gradientUnits="userSpaceOnUse" x1="7.68" y1="15.2061" x2="13.15" y2="15.2061" gradientTransform="matrix(1 0 0 -1 0 24)">
	<stop  offset="0" style="stop-color:#F5F1A7"/>
	<stop  offset="7.774172e-02" style="stop-color:#D9E487"/>
	<stop  offset="0.1688" style="stop-color:#C0D869"/>
	<stop  offset="0.2696" style="stop-color:#ABCD50"/>
	<stop  offset="0.382" style="stop-color:#9AC63D"/>
	<stop  offset="0.5126" style="stop-color:#8FC02F"/>
	<stop  offset="0.6778" style="stop-color:#88BD27"/>
	<stop  offset="0.9916" style="stop-color:#86BC25"/>
</linearGradient>
<path class="st0" d="M8.6,7.1c-0.1,1.1-0.3,2.2-0.3,3.3H7.7C7.8,10,7.8,9.6,7.9,9.2l0.4-2.3c0-0.2,0.1-0.4,0.1-0.5
	c0.1-0.4,0.6-0.7,1-0.6c0.7,0.1,1.3,0.2,2,0.3c0.5,0.1,0.8,0.5,0.8,1c0,0,0,0,0,0c-0.1,0.8-0.2,1.5-0.4,2.3v0.1L11,9
	c0,0-0.1-0.1-0.1-0.1c-0.3-0.7-0.6-1.3-0.9-2l0.1,0.7c0.1,0.6,0.2,1.2,0.2,1.8c0,0.1,0.1,0.2,0.2,0.2l2.2,1c0.4,0.2,0.5,0.6,0.4,1
	c0,0,0,0,0,0c-0.2,0.3-0.6,0.5-0.9,0.3c-0.9-0.4-1.8-0.9-2.7-1.3C9,10.5,9,10.1,9,9.8C8.9,8.9,8.8,8.1,8.6,7.1
	C8.6,7.2,8.6,7.2,8.6,7.1z"/>
<linearGradient id="SVGID_2_" gradientUnits="userSpaceOnUse" x1="0.57" y1="8.7554" x2="10.28" y2="8.7554" gradientTransform="matrix(1 0 0 -1 0 24)">
	<stop  offset="0" style="stop-color:#F5F1A7"/>
	<stop  offset="7.774172e-02" style="stop-color:#D9E487"/>
	<stop  offset="0.1688" style="stop-color:#C0D869"/>
	<stop  offset="0.2696" style="stop-color:#ABCD50"/>
	<stop  offset="0.382" style="stop-color:#9AC63D"/>
	<stop  offset="0.5126" style="stop-color:#8FC02F"/>
	<stop  offset="0.6778" style="stop-color:#88BD27"/>
	<stop  offset="0.9916" style="stop-color:#86BC25"/>
</linearGradient>
<path class="st1" d="M2.4,18.6h0.7c0.2,0,0.3,0.1,0.3,0.3c0,0.2,0,0.3-0.2,0.4c-0.1,0-0.1,0.1-0.2,0.1H0.9c-0.2,0-0.4-0.2-0.4-0.4
	c0-0.2,0.2-0.4,0.4-0.4c0.2,0,0.5,0,0.7,0v-0.2c0-1.4,0-2.8,0-4.2c0-1.2,0.7-2.4,1.8-2.9c0.4-0.2,0.8-0.3,1.3-0.3h4
	c0.1,0,0.2,0,0.3,0.1l1.3,0.6c0,0,0.1,0,0.1,0.1H4.8c-1,0-2,0.6-2.2,1.6c-0.1,0.2-0.1,0.4-0.1,0.6c0,1.4,0,2.9,0,4.4
	C2.4,18.5,2.4,18.6,2.4,18.6z"/>
<linearGradient id="SVGID_3_" gradientUnits="userSpaceOnUse" x1="7.13" y1="8.0134" x2="10.1792" y2="8.0134" gradientTransform="matrix(1 0 0 -1 0 24)">
	<stop  offset="0" style="stop-color:#F5F1A7"/>
	<stop  offset="7.774172e-02" style="stop-color:#D9E487"/>
	<stop  offset="0.1688" style="stop-color:#C0D869"/>
	<stop  offset="0.2696" style="stop-color:#ABCD50"/>
	<stop  offset="0.382" style="stop-color:#9AC63D"/>
	<stop  offset="0.5126" style="stop-color:#8FC02F"/>
	<stop  offset="0.6778" style="stop-color:#88BD27"/>
	<stop  offset="0.9916" style="stop-color:#86BC25"/>
</linearGradient>
<path class="st2" d="M7.8,12.6h1.7c0.1,0,0.1,0.1,0.1,0.1c0.2,0.6,0.4,1.2,0.5,1.9c0,0.2,0,0.4,0,0.5c-0.4,1.3-0.9,2.5-1.3,3.7
	c-0.1,0.5-0.6,0.7-1.1,0.6c0,0,0,0,0,0c-0.5-0.2-0.7-0.7-0.5-1.1C7.6,17.1,8,16,8.4,14.9c0-0.1,0-0.2,0-0.3
	C8.2,13.9,8,13.3,7.8,12.6C7.8,12.6,7.8,12.6,7.8,12.6z"/>
<linearGradient id="SVGID_4_" gradientUnits="userSpaceOnUse" x1="9.95" y1="7.9992" x2="12.71" y2="7.9992" gradientTransform="matrix(1 0 0 -1 0 24)">
	<stop  offset="0" style="stop-color:#F5F1A7"/>
	<stop  offset="7.774172e-02" style="stop-color:#D9E487"/>
	<stop  offset="0.1688" style="stop-color:#C0D869"/>
	<stop  offset="0.2696" style="stop-color:#ABCD50"/>
	<stop  offset="0.382" style="stop-color:#9AC63D"/>
	<stop  offset="0.5126" style="stop-color:#8FC02F"/>
	<stop  offset="0.6778" style="stop-color:#88BD27"/>
	<stop  offset="0.9916" style="stop-color:#86BC25"/>
</linearGradient>
<path class="st3" d="M10,12.6h2c0.2,0.5,0.5,0.9,0.7,1.4c0.1,0.1,0.1,0.3,0.1,0.5c0,1.1-0.1,2.2-0.1,3.4c0,0.3,0,0.6,0,0.9
	c-0.1,0.4-0.4,0.7-0.9,0.7c-0.4,0-0.8-0.3-0.8-0.8c0-0.4,0-0.7,0-1.1c0-0.9,0.1-1.8,0.1-2.7c0-0.2,0-0.3-0.1-0.5
	C10.6,13.8,10.3,13.2,10,12.6z"/>
<linearGradient id="SVGID_5_" gradientUnits="userSpaceOnUse" x1="13.76" y1="8.7625" x2="19.51" y2="8.7625" gradientTransform="matrix(1 0 0 -1 0 24)">
	<stop  offset="0" style="stop-color:#F5F1A7"/>
	<stop  offset="7.774172e-02" style="stop-color:#D9E487"/>
	<stop  offset="0.1688" style="stop-color:#C0D869"/>
	<stop  offset="0.2696" style="stop-color:#ABCD50"/>
	<stop  offset="0.382" style="stop-color:#9AC63D"/>
	<stop  offset="0.5126" style="stop-color:#8FC02F"/>
	<stop  offset="0.6778" style="stop-color:#88BD27"/>
	<stop  offset="0.9916" style="stop-color:#86BC25"/>
</linearGradient>
<path class="st4" d="M13.8,11.9l0.1-0.8h1.7c0.2,0,0.5,0,0.7,0.1c1.3,0.4,2.2,1.6,2.2,2.9c0,1.4,0,2.8,0,4.3v0.2c0.3,0,0.5,0,0.7,0
	c0.2,0,0.4,0.2,0.4,0.4c0,0.2-0.2,0.4-0.4,0.4c-0.7,0-1.4,0-2.1,0c-0.2,0-0.4-0.1-0.5-0.3c0-0.2,0.1-0.4,0.3-0.5c0,0,0.1,0,0.1,0
	h0.6c0-0.1,0-0.1,0-0.2c0-1.4,0-2.8,0-4.2c0-1-0.7-1.9-1.8-2.2c-0.3,0-0.5-0.1-0.8-0.1L13.8,11.9z"/>
<linearGradient id="SVGID_6_" gradientUnits="userSpaceOnUse" x1="9.6983" y1="20.2701" x2="12.6883" y2="20.2701" gradientTransform="matrix(1 0 0 -1 0 24)">
	<stop  offset="0" style="stop-color:#F5F1A7"/>
	<stop  offset="7.774172e-02" style="stop-color:#D9E487"/>
	<stop  offset="0.1688" style="stop-color:#C0D869"/>
	<stop  offset="0.2696" style="stop-color:#ABCD50"/>
	<stop  offset="0.382" style="stop-color:#9AC63D"/>
	<stop  offset="0.5126" style="stop-color:#8FC02F"/>
	<stop  offset="0.6778" style="stop-color:#88BD27"/>
	<stop  offset="0.9916" style="stop-color:#86BC25"/>
</linearGradient>
<path class="st5" d="M11.2,5.2c-0.8,0-1.5-0.6-1.5-1.4c0,0,0-0.1,0-0.1c0-0.8,0.7-1.4,1.5-1.4c0.8,0,1.5,0.7,1.5,1.5
	S12,5.2,11.2,5.2L11.2,5.2z"/>
<linearGradient id="SVGID_7_" gradientUnits="userSpaceOnUse" x1="-104.6185" y1="-27.5" x2="-24.3815" y2="-27.5">
	<stop  offset="0" style="stop-color:#F5F1A7"/>
	<stop  offset="0.3324" style="stop-color:#D3E17F"/>
	<stop  offset="0.9916" style="stop-color:#86BC25"/>
</linearGradient>
<circle class="st6" cx="-64.5" cy="-27.5" r="40.1"/>
</svg>
