<svg id="Capa_1" data-name="Capa 1" xmlns="http://www.w3.org/2000/svg" xmlns:xlink="http://www.w3.org/1999/xlink" viewBox="0 0 20 21.65"><defs><style>.cls-1{fill:url(#Degradado_sin_nombre_57);}.cls-2{fill:url(#Degradado_sin_nombre_57-2);}.cls-3{fill:url(#Degradado_sin_nombre_57-3);}.cls-4{fill:url(#Degradado_sin_nombre_57-4);}.cls-5{fill:url(#Degradado_sin_nombre_57-5);}.cls-6{fill:url(#Degradado_sin_nombre_57-6);}</style><linearGradient id="Degradado_sin_nombre_57" x1="7.68" y1="8.83" x2="13.15" y2="8.83" gradientUnits="userSpaceOnUse"><stop offset="0.27" stop-color="#c7e0f3"/><stop offset="0.33" stop-color="#bad9f1"/><stop offset="0.44" stop-color="#a6cfed"/><stop offset="0.57" stop-color="#98c8eb"/><stop offset="0.73" stop-color="#90c3e9"/><stop offset="0.99" stop-color="#8dc2e9"/><stop offset="1" stop-color="#8dc2e9"/></linearGradient><linearGradient id="Degradado_sin_nombre_57-2" x1="0.57" y1="15.25" x2="10.28" y2="15.25" xlink:href="#Degradado_sin_nombre_57"/><linearGradient id="Degradado_sin_nombre_57-3" x1="7.13" y1="15.99" x2="10.18" y2="15.99" xlink:href="#Degradado_sin_nombre_57"/><linearGradient id="Degradado_sin_nombre_57-4" x1="9.95" y1="15.99" x2="12.71" y2="15.99" xlink:href="#Degradado_sin_nombre_57"/><linearGradient id="Degradado_sin_nombre_57-5" x1="13.76" y1="15.25" x2="19.51" y2="15.25" xlink:href="#Degradado_sin_nombre_57"/><linearGradient id="Degradado_sin_nombre_57-6" x1="9.7" y1="3.72" x2="12.69" y2="3.72" xlink:href="#Degradado_sin_nombre_57"/></defs><path class="cls-1" d="M8.56,7.13c-.05,1.12-.25,2.19-.25,3.28H7.68c.07-.42.13-.83.19-1.25l.36-2.35a3.41,3.41,0,0,1,.1-.54.88.88,0,0,1,1-.61c.66.1,1.33.19,2,.3a.87.87,0,0,1,.75,1c-.1.76-.23,1.52-.35,2.28l0,.05L11,9s-.06-.08-.08-.13c-.28-.67-.55-1.33-.86-2l.09.72c.08.58.17,1.17.24,1.75a.25.25,0,0,0,.16.22l2.15,1a.72.72,0,0,1,.33,1,.71.71,0,0,1-.92.32c-.91-.43-1.81-.87-2.72-1.32C9,10.47,9,10.12,9,9.77c-.11-.86-.23-1.72-.34-2.58C8.62,7.18,8.6,7.18,8.56,7.13Z"/><path class="cls-2" d="M2.43,18.62h.68a.33.33,0,0,1,.33.3.36.36,0,0,1-.18.42.39.39,0,0,1-.21.06H.94a.39.39,0,0,1,0-.78c.23,0,.46,0,.7,0v-.23c0-1.38,0-2.77,0-4.16a3,3,0,0,1,1.81-2.87,2.84,2.84,0,0,1,1.28-.27h4a.57.57,0,0,1,.25.08l1.28.64a.21.21,0,0,1,.1.09H4.76a2.22,2.22,0,0,0-2.24,1.6,1.91,1.91,0,0,0-.1.58c0,1.45,0,2.91,0,4.36A1.62,1.62,0,0,0,2.43,18.62Z"/><path class="cls-3" d="M7.79,12.56H9.5a.21.21,0,0,1,.13.1c.18.62.37,1.23.53,1.86a1.1,1.1,0,0,1,0,.54c-.43,1.25-.87,2.5-1.31,3.74a.87.87,0,0,1-1.13.56.9.9,0,0,1-.52-1.15c.39-1.1.78-2.21,1.16-3.33a.65.65,0,0,0,0-.34c-.17-.63-.36-1.26-.54-1.89A.44.44,0,0,0,7.79,12.56Z"/><path class="cls-4" d="M10,12.57h2c.23.47.48.93.7,1.41a1.22,1.22,0,0,1,.09.46c0,1.13-.07,2.25-.11,3.38a8.88,8.88,0,0,1,0,.9.84.84,0,0,1-.88.71.85.85,0,0,1-.82-.76,10.46,10.46,0,0,1,0-1.12c0-.9.06-1.8.1-2.7a.94.94,0,0,0-.1-.49C10.55,13.77,10.26,13.18,10,12.57Z"/><path class="cls-5" d="M13.76,11.89l.12-.79h1.69a2.93,2.93,0,0,1,.67.11,3,3,0,0,1,2.2,2.92c0,1.42,0,2.83,0,4.25v.21c.25,0,.48,0,.71,0a.39.39,0,0,1,.35.4.4.4,0,0,1-.39.38c-.69,0-1.39,0-2.09,0a.4.4,0,1,1,0-.79h.61a1.62,1.62,0,0,0,0-.18c0-1.41,0-2.82,0-4.22A2.25,2.25,0,0,0,15.88,12a3.94,3.94,0,0,0-.77-.06Z"/><path class="cls-6" d="M11.19,5.2A1.47,1.47,0,0,1,9.7,3.66a1.49,1.49,0,0,1,1.51-1.43,1.49,1.49,0,1,1,0,3Z"/></svg>